<svg width="1028" height="593" viewBox="0 0 1028 593" fill="none" xmlns="http://www.w3.org/2000/svg">
<g clip-path="url(#clip0_1698_39)">
<g clip-path="url(#clip1_1698_39)">
<g clip-path="url(#clip2_1698_39)">
<path d="M423.055 55.2344C426.836 57.4178 428.202 59.8709 428.4 62.1958L424.412 62.1915C424.212 60.4326 423.085 58.5246 420.22 56.8708C414.44 53.5333 405.455 53.672 399.793 56.9407C394.129 60.2107 393.972 65.4439 399.672 68.7344C403.36 70.8638 406.995 71.2579 409.645 71.2619C411.959 71.3119 414.38 70.7684 416.737 69.6899L417.276 69.4434L416.79 69.1628L408.293 64.2572L411.127 62.6208L422.874 69.4031C422.39 69.7518 421.811 70.1439 421.134 70.5346C418.444 72.0876 414.337 73.5655 409.668 73.5605L409.668 73.5604L409.658 73.5605C405.023 73.5993 400.759 72.635 396.838 70.3708C389.558 66.1679 389.321 59.2418 396.55 55.0682C403.779 50.8945 415.775 51.0316 423.055 55.2344Z" stroke="white" stroke-opacity="0.2"/>
<path d="M420.827 74.2666C425.613 71.5038 432.955 71.6779 437.551 74.3312C442.221 77.0272 442.453 81.221 437.584 84.0322C432.801 86.7935 425.617 86.6227 420.939 83.9221C416.267 81.2246 416.039 77.0309 420.827 74.2666ZM423.755 76.0477C420.457 77.9518 420.521 80.7716 423.459 82.4676C426.396 84.1636 431.28 84.2006 434.578 82.2965C437.959 80.3445 437.808 77.5702 434.874 75.8767C431.941 74.1832 427.136 74.0957 423.755 76.0477Z" stroke="white" stroke-opacity="0.2"/>
<path d="M478.474 100.055L478.451 100.218L478.652 100.334L478.81 100.425L478.968 100.516L479.401 100.766L479.834 100.516L480.897 99.9024L483.666 101.501L468.353 110.342C465.214 112.155 462.115 112.859 459.311 112.83C456.499 112.8 453.879 112.031 451.71 110.779C447.904 108.581 447.928 105.775 449.001 103.974L452.607 104.81C451.875 106.096 451.833 107.85 454.229 109.233C455.745 110.108 457.52 110.573 459.399 110.537C461.271 110.501 463.144 109.969 464.875 108.97L466.134 108.243L466.567 107.993L466.134 107.743L465.976 107.652L465.776 107.536L465.494 107.549C463.781 107.63 461.353 107.255 459.346 106.096C455.178 103.69 455.204 99.4972 459.866 96.8057C464.604 94.0703 471.788 94.098 475.957 96.5053C477.965 97.6644 478.614 99.0663 478.474 100.055ZM462.872 98.6324C459.696 100.466 459.283 103.151 462.26 104.87C465.217 106.577 469.869 106.455 472.99 104.558C476.241 102.679 476.572 99.9508 473.676 98.2789C470.786 96.6106 466.137 96.7476 462.872 98.6324Z" stroke="white" stroke-opacity="0.2"/>
<path d="M440.505 85.6275C445.29 82.8646 452.633 83.0387 457.228 85.6921C461.898 88.3881 462.131 92.5818 457.261 95.393C452.479 98.1544 445.294 97.9835 440.616 95.283C435.944 92.5855 435.717 88.3918 440.505 85.6275ZM443.432 87.4086C440.134 89.3127 440.198 92.1325 443.136 93.8284C446.073 95.5244 450.957 95.5614 454.255 93.6574C457.636 91.7053 457.485 88.931 454.552 87.2375C451.618 85.544 446.813 85.4565 443.432 87.4086Z" stroke="white" stroke-opacity="0.2"/>
<path d="M496.825 98.28L499.752 99.97L474.165 114.743L471.238 113.053L496.825 98.28Z" stroke="white" stroke-opacity="0.2"/>
<path d="M487.971 115.66L487.35 115.51L487.149 115.881C486.695 116.721 486.579 117.503 486.867 118.238C487.156 118.976 487.838 119.637 488.891 120.245C490.882 121.395 493.181 121.688 495.631 121.498L496.413 123.667C493.943 123.831 489.88 123.726 486.372 121.7C481.639 118.967 481.77 114.819 486.418 112.136C491.382 109.27 498.33 109.422 502.589 111.881C506.821 114.324 505.599 117.549 504.385 119.043L504.385 119.042L504.379 119.049L503.994 119.551L487.971 115.66ZM501.07 116.966L501.608 117.093L501.856 116.789C502.711 115.745 502 114.359 500.306 113.381C498.127 112.123 493.468 111.439 489.651 113.741L489.03 114.115L489.861 114.312L501.07 116.966Z" stroke="white" stroke-opacity="0.2"/>
</g>
<rect x="-2.98023e-08" y="0.5" width="388" height="43" rx="21.5" transform="matrix(0.866025 0.5 -0.866025 0.5 608.116 159.58)" stroke="white" stroke-opacity="0.2"/>
<g clip-path="url(#clip3_1698_39)">
<path d="M833.072 305.868L833.072 304.458L823.39 304.458L823.39 298.868L820.948 298.868L820.948 304.458L811.266 304.458L811.266 305.868L820.948 305.868L820.948 311.458L823.39 311.458L823.39 305.868L833.072 305.868Z" fill="#9AA0A6" fill-opacity="0.1"/>
</g>
<path d="M847.572 307.83L826.788 319.83L828.52 320.83L849.304 308.83L847.572 307.83Z" fill="#5F6368" fill-opacity="0.1" mask="url(#path-12-outside-1_1698_39)"/>
<g clip-path="url(#clip4_1698_39)">
<path d="M857.628 328.024C858.884 328.749 860.919 328.749 862.175 328.024C863.43 327.3 863.43 326.124 862.175 325.399C860.919 324.675 858.884 324.675 857.628 325.399C856.373 326.124 856.373 327.3 857.628 328.024Z" fill="#4285F4" fill-opacity="0.1"/>
<path d="M867.708 328.205L864.448 330.087L862.511 331.205C862.374 331.284 862.217 331.343 862.053 331.392C861.527 331.549 860.9 331.549 860.373 331.392C860.209 331.344 860.052 331.284 859.915 331.205L853.581 327.548L853.581 329.048L857.641 331.392L858.615 331.954C858.974 332.162 859.389 332.317 859.831 332.421C860.273 332.524 860.743 332.576 861.213 332.576C861.449 332.576 861.683 332.563 861.915 332.537C862.378 332.485 862.828 332.381 863.235 332.226C863.439 332.149 863.632 332.058 863.811 331.954L864.786 331.392L867.046 330.087L868.032 329.517L869.088 328.345L868.032 327.94C867.947 328.035 867.845 328.126 867.708 328.205Z" fill="#EA4335" fill-opacity="0.1"/>
<path d="M857.315 322.205C857.453 322.126 857.61 322.067 857.773 322.017C858.3 321.86 858.927 321.86 859.454 322.017C859.619 322.067 859.776 322.126 859.914 322.205L867.708 326.705C867.845 326.784 867.947 326.875 868.033 326.969L869.007 326.424L868.033 325.392L868.033 323.892L866.941 323.262L866.409 322.955L865.876 322.647L864.785 322.017L862.187 322.017L861.213 321.455C859.778 320.627 857.451 320.627 856.016 321.455L855.042 322.017L853.418 322.955L853.418 324.455L857.315 322.205Z" fill="#4285F4" fill-opacity="0.1"/>
<path d="M869.007 325.955L868.033 325.392L868.033 326.97C868.101 327.046 868.151 327.126 868.185 327.207C868.254 327.37 868.254 327.54 868.185 327.703C868.151 327.785 868.101 327.865 868.033 327.94L868.033 329.517L869.007 328.955C870.442 328.127 870.442 326.783 869.007 325.955Z" fill="#34A853" fill-opacity="0.1"/>
<path d="M850.82 327.455L854.059 329.325L854.059 327.825L852.119 326.705C851.403 326.291 851.403 325.618 852.119 325.205L854.059 324.085L854.059 322.585L850.82 324.455C849.386 325.283 849.386 326.627 850.82 327.455Z" fill="#FBBC04" fill-opacity="0.1"/>
</g>
<g clip-path="url(#clip5_1698_39)">
<path d="M881.131 340.455C882.209 341.077 883.931 341.089 885.009 340.466L889.569 337.834C890.647 337.211 890.653 336.202 889.575 335.58C888.497 334.957 886.756 334.957 885.671 335.584L881.112 338.216C880.034 338.839 880.053 339.832 881.131 340.455Z" fill="#4285F4" fill-opacity="0.1"/>
<path d="M878.481 341.235L879.78 341.985L877.234 343.455L875.935 342.705L878.481 341.235Z" fill="#34A853" fill-opacity="0.1"/>
<path d="M876.701 339.3C876.74 338.325 877.208 337.47 878.533 336.705L879.832 337.455C878.89 337.999 878.624 338.572 878.591 339.274L878.383 339.394L876.87 339.405L876.701 339.3Z" fill="#FBBC04" fill-opacity="0.1"/>
<path d="M879.877 341.179C879.449 340.933 879.114 340.637 878.892 340.31C878.67 339.982 878.566 339.629 878.585 339.27L876.701 339.3C876.649 340.275 877.279 341.231 878.533 341.955C881.046 343.406 884.969 343.481 887.62 341.951L886.327 341.205C884.43 342.3 881.67 342.214 879.877 341.179Z" fill="#EA4335" fill-opacity="0.1"/>
</g>
<g clip-path="url(#clip6_1698_39)">
<path d="M906.679 355.622L906.109 355.292L906.101 355.063C907.682 354.996 909.167 354.602 910.287 353.955C911.215 353.419 911.847 352.737 912.103 351.994C912.359 351.251 912.227 350.481 911.725 349.781C911.223 349.081 910.373 348.483 909.282 348.062C908.191 347.641 906.908 347.416 905.596 347.416C904.284 347.416 903.001 347.641 901.911 348.062C900.82 348.483 899.969 349.081 899.467 349.781C898.965 350.481 898.834 351.251 899.09 351.994C899.346 352.737 899.977 353.419 900.905 353.955C902.067 354.626 903.561 354.997 905.091 355.063L905.084 355.292L904.514 355.622L904.521 359.784L906.672 359.784L906.679 355.622ZM902.349 353.122C900.552 352.084 900.552 350.409 902.349 349.372C904.146 348.334 907.047 348.334 908.844 349.372C910.641 350.409 910.641 352.084 908.844 353.122C907.047 354.159 904.146 354.159 902.349 353.122Z" fill="#7EA2DD" fill-opacity="0.1"/>
</g>
<line y1="-0.5" x2="652" y2="-0.5" transform="matrix(0.866025 0.5 -0.866025 0.5 308.333 89.5)" stroke="#3C4043"/>
<path d="M459.994 228.062L461.2 227.366L463.472 228.678L470.816 224.438L471.536 224.854L467.075 224.23L468.46 223.43L472.437 223.966L473.476 224.566L464.913 229.51L467.047 230.742L465.841 231.438L459.994 228.062Z" fill="white" fill-opacity="0.2"/>
<rect x="-2.98023e-08" y="0.5" width="389" height="75" rx="3.5" transform="matrix(0.866025 0.5 -0.866025 0.5 490.631 226.75)" stroke="white" stroke-opacity="0.2"/>
<path d="M365.951 281.766L367.018 281.15L373.876 281.062C374.763 281.051 375.512 280.992 376.121 280.886C376.731 280.779 377.248 280.603 377.673 280.358C378.2 280.054 378.431 279.728 378.366 279.382C378.311 279.04 377.973 278.691 377.354 278.334C376.865 278.051 376.315 277.835 375.706 277.686C375.105 277.542 374.426 277.459 373.669 277.438L374.264 276.518C375.013 276.534 375.779 276.646 376.565 276.854C377.368 277.062 378.093 277.352 378.74 277.726C379.756 278.312 380.306 278.896 380.389 279.478C380.481 280.064 380.098 280.606 379.239 281.102C378.629 281.454 377.895 281.707 377.036 281.862C376.186 282.011 375.17 282.086 373.987 282.086L368.168 282.102L368.556 281.878L373.627 284.806L372.422 285.502L365.951 281.766Z" fill="white" fill-opacity="0.2"/>
<rect x="-2.98023e-08" y="0.5" width="99" height="7" rx="1.5" transform="matrix(0.866025 0.5 -0.866025 0.5 397.1 288.75)" stroke="white" stroke-opacity="0.2"/>
<rect x="-2.98023e-08" y="0.5" width="99" height="7" rx="1.5" transform="matrix(0.866025 0.5 -0.866025 0.5 386.708 294.75)" stroke="white" stroke-opacity="0.2"/>
<rect x="-2.98023e-08" y="0.5" width="373" height="7" rx="1.5" transform="matrix(0.866025 0.5 -0.866025 0.5 372.852 302.75)" stroke="white" stroke-opacity="0.2"/>
<rect x="-2.98023e-08" y="0.5" width="373" height="7" rx="1.5" transform="matrix(0.866025 0.5 -0.866025 0.5 362.46 308.75)" stroke="white" stroke-opacity="0.2"/>
<rect x="-2.98023e-08" y="0.5" width="373" height="7" rx="1.5" transform="matrix(0.866025 0.5 -0.866025 0.5 352.067 314.75)" stroke="white" stroke-opacity="0.2"/>
<rect x="-2.98023e-08" y="0.5" width="389" height="75" rx="3.5" transform="matrix(0.866025 0.5 -0.866025 0.5 397.1 280.75)" stroke="white" stroke-opacity="0.2"/>
<path d="M256.397 326.515L257.603 325.819L259.875 327.131L267.219 322.891L267.94 323.307L263.478 322.683L264.864 321.883L268.84 322.419L269.88 323.019L261.316 327.963L263.45 329.195L262.245 329.891L256.397 326.515ZM267.075 332.824C265.948 332.173 265.509 331.424 265.759 330.576C266.027 329.728 266.969 328.837 268.585 327.904C270.23 326.954 271.772 326.41 273.214 326.272C274.673 326.133 275.966 326.389 277.093 327.04C278.23 327.696 278.673 328.442 278.424 329.28C278.183 330.112 277.246 331 275.611 331.944C273.985 332.882 272.433 333.426 270.955 333.576C269.495 333.725 268.202 333.474 267.075 332.824ZM268.281 332.128C268.992 332.538 269.828 332.664 270.789 332.504C271.759 332.349 272.899 331.893 274.211 331.136C275.532 330.373 276.317 329.717 276.567 329.168C276.835 328.618 276.613 328.138 275.902 327.728C275.2 327.322 274.368 327.194 273.408 327.344C272.456 327.488 271.324 327.938 270.013 328.696C268.692 329.458 267.897 330.12 267.629 330.68C267.371 331.245 267.588 331.728 268.281 332.128ZM275.384 337.62C274.257 336.97 273.818 336.22 274.067 335.372C274.335 334.524 275.277 333.634 276.894 332.7C278.538 331.751 280.081 331.207 281.522 331.068C282.981 330.93 284.275 331.186 285.402 331.836C286.538 332.492 286.981 333.239 286.732 334.076C286.492 334.908 285.554 335.796 283.919 336.74C282.293 337.679 280.741 338.223 279.263 338.372C277.804 338.522 276.511 338.271 275.384 337.62ZM276.589 336.924C277.3 337.335 278.136 337.46 279.097 337.3C280.067 337.146 281.208 336.69 282.52 335.932C283.841 335.17 284.626 334.514 284.875 333.964C285.143 333.415 284.921 332.935 284.21 332.524C283.508 332.119 282.677 331.991 281.716 332.14C280.764 332.284 279.633 332.735 278.321 333.492C277 334.255 276.206 334.916 275.938 335.476C275.679 336.042 275.896 336.524 276.589 336.924Z" fill="white" fill-opacity="0.2"/>
<rect x="0.866025" y="-2.98023e-08" width="373" height="7" rx="1.5" transform="matrix(0.866025 0.5 0.866025 -0.5 251.292 372.067)" stroke="white" stroke-opacity="0.2"/>
<rect x="0.866025" y="-2.98023e-08" width="373" height="7" rx="1.5" transform="matrix(0.866025 0.5 0.866025 -0.5 261.684 366.067)" stroke="white" stroke-opacity="0.2"/>
<rect x="0.866025" y="-2.98023e-08" width="373" height="7" rx="1.5" transform="matrix(0.866025 0.5 0.866025 -0.5 272.076 360.067)" stroke="white" stroke-opacity="0.2"/>
<rect x="0.866025" y="-2.98023e-08" width="99" height="7" rx="1.5" transform="matrix(0.866025 0.5 0.866025 -0.5 285.933 352.067)" stroke="white" stroke-opacity="0.2"/>
<rect x="0.866025" y="-2.98023e-08" width="99" height="7" rx="1.5" transform="matrix(0.866025 0.5 0.866025 -0.5 296.325 346.067)" stroke="white" stroke-opacity="0.2"/>
<rect x="0.866025" y="-2.98023e-08" width="389" height="75" rx="3.5" transform="matrix(0.866025 0.5 0.866025 -0.5 237.435 372.067)" stroke="white" stroke-opacity="0.2"/>
<rect width="390" height="76" rx="4" transform="matrix(0.798692 0.536063 -0.928489 0.461125 521.218 215.182)" fill="#1E1B16"/>
<rect x="-0.0648983" y="0.498594" width="99" height="7" rx="1.5" transform="matrix(0.798692 0.536063 -0.928489 0.461125 520.63 223.463)" stroke="white" stroke-opacity="0.1"/>
<rect x="-0.0648983" y="0.498594" width="99" height="7" rx="1.5" transform="matrix(0.798692 0.536063 -0.928489 0.461125 509.487 228.996)" stroke="white" stroke-opacity="0.1"/>
<rect x="-0.0648983" y="0.498594" width="373" height="7" rx="1.5" transform="matrix(0.798692 0.536063 -0.928489 0.461125 494.632 236.374)" stroke="white" stroke-opacity="0.1"/>
<rect x="-0.0648983" y="0.498594" width="373" height="7" rx="1.5" transform="matrix(0.798692 0.536063 -0.928489 0.461125 483.49 241.908)" stroke="white" stroke-opacity="0.1"/>
<rect x="-0.0648983" y="0.498594" width="373" height="7" rx="1.5" transform="matrix(0.798692 0.536063 -0.928489 0.461125 472.348 247.441)" stroke="white" stroke-opacity="0.1"/>
<rect x="-0.0648983" y="0.498594" width="389" height="75" rx="3.5" transform="matrix(0.798692 0.536063 -0.928489 0.461125 521.668 215.485)" stroke="white" stroke-opacity="0.2"/>
<path d="M421.717 221.95L421.718 221.95C422.733 222.076 423.458 222.76 423.103 223.574C422.748 224.389 421.502 224.849 420.457 224.72C336.479 214.227 242.15 225.952 193.427 280.736C192.76 281.483 191.442 281.712 190.543 281.415L190.543 281.415C189.605 281.106 189.203 280.28 189.869 279.535L189.869 279.534C239.619 223.594 335.744 211.204 421.717 221.95Z" stroke="#FFB95E" stroke-opacity="0.1"/>
<path d="M419.801 223.194L418.359 223.436C414.932 224.009 411.003 224.649 408.169 225.11C406.159 225.438 404.699 225.676 404.358 225.737L404.177 225.399L404.358 225.737C382.005 229.73 361.923 235.512 342.602 243.191L342.602 243.191C341.308 243.704 340.981 244.73 341.87 245.478C342.758 246.225 344.535 246.414 345.831 245.901C364.655 238.414 384.238 232.771 406.046 228.877C406.395 228.814 407.872 228.573 409.899 228.242C411.604 227.964 413.698 227.622 415.838 227.269C420.548 226.493 425.47 225.666 427.081 225.332L427.083 225.331C428.307 225.08 428.821 224.728 428.88 224.682L428.887 224.676L428.894 224.671C429.492 224.236 429.565 223.822 429.512 223.489C429.449 223.127 429.082 222.494 427.865 221.95C427.203 221.657 426.022 221.291 424.853 220.955C424.32 220.802 423.784 220.653 423.321 220.525C422.807 220.383 422.383 220.265 422.155 220.194L422.154 220.194C418.551 219.067 414.771 217.95 410.917 216.812C401.069 213.904 390.742 210.854 381.678 207.122C381.678 207.122 381.678 207.122 381.678 207.122L382.033 206.834C370.044 201.899 360.225 195.746 357.029 186.885L419.801 223.194ZM419.801 223.194L418.478 222.784M419.801 223.194L418.478 222.784M418.478 222.784C415.111 221.741 411.623 220.708 408.085 219.661C398.033 216.685 387.581 213.59 378.368 209.798M418.478 222.784L378.368 209.798M378.368 209.798C365.041 204.311 354.386 197.417 350.853 187.629L378.368 209.798Z" stroke="#FFB95E" stroke-opacity="0.1"/>
<path d="M233.705 363.336C233.574 363.693 232.887 363.926 232.17 363.857C186.155 359.459 164.848 338.444 161.199 316.825L233.705 363.336ZM233.705 363.336C233.836 362.981 233.358 362.637 232.638 362.568L233.705 363.336ZM161.809 316.791L161.809 316.79C161.79 316.679 161.969 316.493 162.445 316.476C162.922 316.458 163.202 316.637 163.225 316.766L163.834 316.731L163.224 316.765C166.793 337.896 187.416 358.604 232.538 362.917C233.007 362.962 233.146 363.154 233.106 363.263L233.106 363.263C233.058 363.393 232.741 363.554 232.271 363.508L232.27 363.508C186.613 359.145 165.44 338.305 161.809 316.791Z" stroke="#FFB95E" stroke-opacity="0.1"/>
<path d="M162.396 316.573L163.234 317.292C164.091 318.027 165.056 318.867 165.749 319.471C166.236 319.896 166.589 320.203 166.675 320.274L166.173 320.477L166.675 320.274C172.378 324.981 179.04 328.925 186.938 332.446L186.938 332.446C187.314 332.614 187.859 332.574 188.151 332.356C188.442 332.139 188.373 331.825 187.996 331.656C187.995 331.656 187.995 331.656 187.995 331.656L188.37 331.376C180.665 327.943 174.16 324.095 168.592 319.498L162.396 316.573ZM162.396 316.573L162.124 317.425C161.826 318.359 161.552 319.318 161.275 320.287C160.491 323.03 159.681 325.864 158.221 328.505C156.11 332.319 152.688 335.665 146.363 337.735C145.946 337.871 145.417 337.786 145.184 337.548C144.948 337.308 145.095 337.002 145.508 336.867L145.508 336.867C151.518 334.901 154.639 331.7 156.574 328.2C158.028 325.571 158.836 322.727 159.601 320.032C159.899 318.983 160.191 317.957 160.511 316.974L160.512 316.974C160.533 316.908 160.562 316.784 160.597 316.638C160.628 316.512 160.662 316.37 160.698 316.235C160.782 315.915 160.882 315.609 160.989 315.437C161.177 315.138 161.5 315.009 161.666 314.967C161.833 314.926 162.037 314.901 162.316 314.962L162.327 314.964L162.338 314.966C162.335 314.966 162.336 314.966 162.338 314.966C162.362 314.973 162.597 315.033 162.861 315.234L162.863 315.235C163.299 315.562 164.514 316.602 165.678 317.609C166.2 318.061 166.71 318.504 167.127 318.868C167.63 319.305 167.998 319.625 168.09 319.701L162.396 316.573ZM163.348 315.019C162.979 314.74 162.62 314.648 162.532 314.631L163.348 315.019Z" stroke="#FFB95E" stroke-opacity="0.1"/>
<path d="M294.92 127.756L309.039 124.628L310.273 125.34L304.924 133.532L303.441 132.676L305.007 130.38L305.229 130.956L299.312 127.54L300.351 127.692L296.375 128.596L294.92 127.756ZM308.056 125.884L300.975 127.54L300.961 127.164L305.88 130.004L305.284 130.028L308.111 125.916L308.056 125.884ZM306.064 137.774C305.436 137.412 304.937 137.038 304.568 136.654C304.208 136.276 303.972 135.884 303.861 135.478L305.233 135.086C305.325 135.364 305.455 135.614 305.621 135.838C305.778 136.068 305.981 136.286 306.231 136.494C306.48 136.702 306.767 136.9 307.09 137.086C307.755 137.47 308.425 137.66 309.099 137.654C309.773 137.66 310.429 137.478 311.067 137.11L312.937 136.03L313.076 136.11C312.411 136.324 311.695 136.385 310.928 136.294C310.18 136.204 309.505 135.985 308.905 135.638C308.268 135.27 307.852 134.87 307.658 134.438C307.482 134.006 307.524 133.566 307.783 133.118C308.06 132.67 308.554 132.241 309.265 131.83C309.977 131.42 310.716 131.137 311.482 130.982C312.258 130.833 313.016 130.812 313.755 130.918C314.512 131.025 315.21 131.262 315.847 131.63C316.457 131.982 316.831 132.374 316.969 132.806C317.126 133.238 317.02 133.646 316.651 134.03L316.637 133.894L318.203 133.134L319.561 133.918C319.237 134.062 318.923 134.212 318.618 134.366C318.323 134.516 318.041 134.668 317.773 134.822L312.605 137.806C311.552 138.414 310.466 138.716 309.348 138.71C308.24 138.71 307.145 138.398 306.064 137.774ZM310.332 135.198C310.942 135.55 311.635 135.71 312.411 135.678C313.196 135.652 313.967 135.42 314.725 134.982C315.482 134.545 315.879 134.102 315.916 133.654C315.963 133.212 315.681 132.814 315.071 132.462C314.443 132.1 313.741 131.929 312.965 131.95C312.198 131.977 311.436 132.209 310.679 132.646C309.921 133.084 309.515 133.526 309.459 133.974C309.413 134.428 309.704 134.836 310.332 135.198ZM317.376 140.865C316.683 140.465 316.225 140.035 316.004 139.577C315.791 139.113 315.814 138.646 316.073 138.177C316.341 137.702 316.849 137.249 317.597 136.817C318.345 136.385 319.126 136.094 319.939 135.945C320.761 135.79 321.569 135.777 322.364 135.905C323.167 136.027 323.916 136.289 324.609 136.689C325.301 137.089 325.754 137.521 325.966 137.985C326.197 138.449 326.179 138.918 325.911 139.393C325.662 139.867 325.163 140.321 324.415 140.753C323.666 141.185 322.877 141.475 322.045 141.625C321.232 141.774 320.419 141.785 319.606 141.657C318.812 141.529 318.068 141.265 317.376 140.865ZM318.47 140.233C319.08 140.585 319.777 140.742 320.562 140.705C321.348 140.667 322.156 140.409 322.987 139.929C323.819 139.449 324.262 138.985 324.318 138.537C324.382 138.083 324.11 137.681 323.5 137.329C322.9 136.982 322.207 136.827 321.422 136.865C320.646 136.897 319.842 137.153 319.011 137.633C318.179 138.113 317.727 138.577 317.653 139.025C317.588 139.478 317.86 139.881 318.47 140.233ZM322.531 143.697L327.782 140.665C328.069 140.5 328.346 140.329 328.614 140.153C328.9 139.977 329.173 139.798 329.431 139.617L330.789 140.401L329.14 141.529L328.919 141.401C329.445 141.204 329.963 141.086 330.471 141.049C330.979 141.012 331.459 141.044 331.912 141.145C332.374 141.252 332.78 141.406 333.131 141.609C333.279 141.694 333.394 141.772 333.477 141.841C333.57 141.905 333.653 141.974 333.727 142.049L332.466 142.761C332.374 142.633 332.272 142.532 332.161 142.457C332.069 142.382 331.939 142.297 331.773 142.201C331.367 141.966 330.928 141.82 330.457 141.761C329.995 141.697 329.538 141.71 329.085 141.801C328.632 141.892 328.23 142.038 327.879 142.241L323.944 144.513L322.531 143.697ZM330.264 148.306C329.645 147.948 329.248 147.554 329.072 147.122C328.897 146.69 328.952 146.242 329.238 145.778C329.534 145.319 330.056 144.874 330.804 144.442C331.562 144.004 332.333 143.703 333.118 143.538C333.913 143.378 334.684 143.348 335.432 143.45C336.19 143.546 336.878 143.772 337.497 144.13C338.106 144.482 338.485 144.876 338.633 145.314C338.781 145.751 338.665 146.164 338.287 146.554L338.134 146.466L339.852 145.634L341.21 146.418C340.896 146.567 340.582 146.716 340.268 146.866C339.972 147.015 339.691 147.167 339.423 147.322L334.116 150.386L332.716 149.578L334.268 148.682L334.421 148.77C333.756 148.983 333.04 149.044 332.273 148.954C331.525 148.863 330.855 148.647 330.264 148.306ZM331.705 147.874C332.305 148.22 332.998 148.375 333.783 148.338C334.578 148.306 335.391 148.05 336.222 147.57C337.053 147.09 337.492 146.623 337.538 146.17C337.603 145.716 337.335 145.316 336.735 144.97C336.125 144.618 335.423 144.458 334.628 144.49C333.853 144.522 333.049 144.778 332.217 145.258C331.386 145.738 330.938 146.204 330.873 146.658C330.809 147.111 331.086 147.516 331.705 147.874ZM342.443 155.337C341.686 154.9 341.316 154.452 341.335 153.993C341.362 153.529 341.787 153.06 342.609 152.585L346.171 150.529L344.813 149.745L345.893 149.121L347.251 149.905L349.094 148.841L350.868 149.433L348.651 150.713L350.591 151.833L349.51 152.457L347.57 151.337L344.134 153.321C343.616 153.62 343.339 153.887 343.302 154.121C343.265 154.356 343.422 154.575 343.773 154.777C343.949 154.879 344.115 154.959 344.272 155.017C344.448 155.076 344.614 155.124 344.771 155.161L343.635 155.817C343.441 155.769 343.238 155.7 343.025 155.609C342.803 155.524 342.609 155.433 342.443 155.337ZM347.686 158.365C346.994 157.965 346.536 157.535 346.315 157.077C346.102 156.613 346.125 156.146 346.384 155.677C346.652 155.202 347.16 154.749 347.908 154.317C348.656 153.885 349.437 153.594 350.25 153.445C351.072 153.29 351.88 153.277 352.675 153.405C353.478 153.527 354.227 153.789 354.919 154.189C355.612 154.589 356.065 155.021 356.277 155.485C356.508 155.949 356.49 156.418 356.222 156.893C355.973 157.367 355.474 157.821 354.725 158.253C353.977 158.685 353.187 158.975 352.356 159.125C351.543 159.274 350.73 159.285 349.917 159.157C349.123 159.029 348.379 158.765 347.686 158.365ZM348.781 157.733C349.391 158.085 350.088 158.242 350.873 158.205C351.659 158.167 352.467 157.909 353.298 157.429C354.13 156.949 354.573 156.485 354.628 156.037C354.693 155.583 354.421 155.181 353.811 154.829C353.21 154.482 352.518 154.327 351.732 154.365C350.957 154.397 350.153 154.653 349.321 155.133C348.49 155.613 348.037 156.077 347.964 156.525C347.899 156.978 348.171 157.381 348.781 157.733ZM355.419 162.829C354.809 162.477 354.412 162.082 354.227 161.645C354.052 161.213 354.107 160.765 354.394 160.301C354.689 159.842 355.211 159.397 355.959 158.965C356.717 158.528 357.488 158.226 358.273 158.061C359.068 157.901 359.839 157.872 360.587 157.973C361.354 158.074 362.042 158.301 362.652 158.653C363.253 159 363.627 159.392 363.774 159.829C363.941 160.266 363.839 160.677 363.47 161.061L363.303 160.965L368.07 158.213L369.469 159.021L359.271 164.909L357.885 164.109L359.465 163.197L359.631 163.293C358.948 163.506 358.227 163.57 357.47 163.485C356.712 163.4 356.029 163.181 355.419 162.829ZM356.86 162.397C357.461 162.744 358.158 162.901 358.952 162.869C359.747 162.837 360.56 162.581 361.391 162.101C362.223 161.621 362.661 161.154 362.708 160.701C362.763 160.242 362.49 159.84 361.89 159.493C361.28 159.141 360.578 158.981 359.784 159.013C359.008 159.045 358.204 159.301 357.373 159.781C356.541 160.261 356.093 160.728 356.029 161.181C355.973 161.64 356.25 162.045 356.86 162.397ZM364.181 167.888C363.489 167.488 363.031 167.059 362.81 166.6C362.597 166.136 362.62 165.669 362.879 165.2C363.147 164.725 363.655 164.272 364.403 163.84C365.151 163.408 365.932 163.117 366.745 162.968C367.567 162.813 368.375 162.8 369.17 162.928C369.973 163.051 370.722 163.312 371.415 163.712C372.107 164.112 372.56 164.544 372.772 165.008C373.003 165.472 372.985 165.941 372.717 166.416C372.468 166.891 371.969 167.344 371.221 167.776C370.472 168.208 369.682 168.499 368.851 168.648C368.038 168.797 367.225 168.808 366.412 168.68C365.618 168.552 364.874 168.288 364.181 167.888ZM365.276 167.256C365.886 167.608 366.583 167.765 367.368 167.728C368.154 167.691 368.962 167.432 369.793 166.952C370.625 166.472 371.068 166.008 371.124 165.56C371.188 165.107 370.916 164.704 370.306 164.352C369.706 164.005 369.013 163.851 368.228 163.888C367.452 163.92 366.648 164.176 365.817 164.656C364.985 165.136 364.533 165.6 364.459 166.048C364.394 166.501 364.666 166.904 365.276 167.256ZM371.637 172.193C371.055 171.857 370.593 171.505 370.251 171.137C369.91 170.769 369.711 170.414 369.656 170.073L371.041 169.769C371.124 170.115 371.309 170.446 371.595 170.761C371.882 171.075 372.242 171.358 372.676 171.609C373.184 171.902 373.655 172.073 374.09 172.121C374.533 172.163 374.912 172.094 375.226 171.913C375.466 171.774 375.577 171.614 375.558 171.433C375.549 171.257 375.397 171.041 375.101 170.785L374.034 169.865C373.572 169.449 373.346 169.062 373.355 168.705C373.364 168.347 373.614 168.027 374.103 167.745C374.519 167.505 374.999 167.355 375.544 167.297C376.099 167.243 376.676 167.283 377.277 167.417C377.886 167.555 378.473 167.787 379.036 168.113C379.554 168.411 379.96 168.731 380.256 169.073C380.551 169.414 380.708 169.75 380.727 170.081L379.355 170.361C379.309 170.057 379.17 169.763 378.939 169.481C378.718 169.193 378.422 168.942 378.053 168.729C377.535 168.43 377.055 168.265 376.611 168.233C376.168 168.201 375.789 168.275 375.475 168.457C375.235 168.595 375.11 168.753 375.101 168.929C375.11 169.105 375.24 169.313 375.489 169.553L376.556 170.473C377.055 170.91 377.313 171.305 377.332 171.657C377.35 172.009 377.11 172.329 376.611 172.617C376.177 172.867 375.678 173.017 375.115 173.065C374.551 173.113 373.974 173.062 373.383 172.913C372.792 172.763 372.21 172.523 371.637 172.193ZM382.551 178.494C381.793 178.056 381.424 177.608 381.442 177.15C381.47 176.686 381.895 176.216 382.717 175.742L386.278 173.686L384.92 172.902L386.001 172.278L387.359 173.062L389.202 171.998L390.976 172.59L388.759 173.87L390.699 174.99L389.618 175.614L387.678 174.494L384.241 176.478C383.724 176.776 383.447 177.043 383.41 177.278C383.373 177.512 383.53 177.731 383.881 177.934C384.057 178.035 384.223 178.115 384.38 178.174C384.556 178.232 384.722 178.28 384.879 178.318L383.743 178.974C383.549 178.926 383.345 178.856 383.133 178.766C382.911 178.68 382.717 178.59 382.551 178.494ZM388.03 181.657C386.903 181.006 386.335 180.31 386.325 179.569C386.316 178.828 386.875 178.132 388.002 177.481C388.732 177.06 389.508 176.772 390.33 176.617C391.161 176.468 391.974 176.452 392.769 176.569C393.582 176.686 394.321 176.937 394.986 177.321C395.642 177.7 396.053 178.097 396.219 178.513C396.385 178.929 396.33 179.35 396.053 179.777C395.785 180.198 395.309 180.606 394.625 181.001L394.182 181.257L388.917 178.217L389.72 177.753L394.03 180.241L393.614 180.209C394.307 179.809 394.685 179.409 394.75 179.009C394.833 178.609 394.584 178.241 394.002 177.905C393.355 177.532 392.63 177.374 391.826 177.433C391.032 177.486 390.242 177.74 389.457 178.193L389.318 178.273C388.496 178.748 388.076 179.22 388.057 179.689C388.048 180.164 388.413 180.614 389.152 181.041C389.559 181.276 389.993 181.462 390.455 181.601C390.935 181.74 391.471 181.825 392.062 181.857L391.563 182.673C390.953 182.652 390.339 182.553 389.72 182.377C389.111 182.196 388.547 181.956 388.03 181.657ZM399.787 188.445C399.177 188.093 398.799 187.698 398.651 187.261C398.503 186.824 398.618 186.41 398.997 186.021L399.15 186.109L397.57 187.021L396.184 186.221L406.383 180.333L407.782 181.141L403.015 183.893L402.849 183.797C403.524 183.589 404.23 183.528 404.969 183.613C405.727 183.698 406.41 183.917 407.02 184.269C407.639 184.626 408.031 185.024 408.198 185.461C408.373 185.893 408.313 186.338 408.018 186.797C407.741 187.256 407.223 187.704 406.466 188.141C405.717 188.573 404.942 188.872 404.138 189.037C403.353 189.202 402.581 189.232 401.824 189.125C401.076 189.024 400.397 188.797 399.787 188.445ZM400.535 187.613C401.136 187.96 401.828 188.12 402.614 188.093C403.408 188.061 404.221 187.805 405.052 187.325C405.893 186.84 406.336 186.37 406.383 185.917C406.438 185.458 406.165 185.056 405.565 184.709C404.955 184.357 404.253 184.197 403.459 184.229C402.683 184.261 401.879 184.517 401.048 184.997C400.216 185.477 399.768 185.944 399.704 186.397C399.648 186.856 399.925 187.261 400.535 187.613ZM406.984 192.6C406.143 192.115 405.737 191.619 405.764 191.112C405.81 190.605 406.309 190.077 407.261 189.528L411.57 187.04L412.97 187.848L408.688 190.32C408.106 190.656 407.797 190.973 407.76 191.272C407.723 191.571 407.949 191.861 408.439 192.144C408.993 192.464 409.626 192.616 410.337 192.6C411.048 192.584 411.709 192.4 412.318 192.048L416.281 189.76L417.681 190.568L410.697 194.6L409.339 193.816L410.836 192.952L411.016 193.056C410.305 193.243 409.593 193.296 408.882 193.216C408.18 193.131 407.547 192.925 406.984 192.6ZM415.019 197.239C414.437 196.903 413.976 196.551 413.634 196.183C413.292 195.815 413.093 195.461 413.038 195.119L414.424 194.815C414.507 195.162 414.692 195.493 414.978 195.807C415.264 196.122 415.625 196.405 416.059 196.655C416.567 196.949 417.038 197.119 417.472 197.167C417.915 197.21 418.294 197.141 418.608 196.959C418.848 196.821 418.959 196.661 418.941 196.479C418.932 196.303 418.779 196.087 418.484 195.831L417.417 194.911C416.955 194.495 416.728 194.109 416.738 193.751C416.747 193.394 416.996 193.074 417.486 192.791C417.902 192.551 418.382 192.402 418.927 192.343C419.481 192.29 420.059 192.33 420.659 192.463C421.269 192.602 421.855 192.834 422.419 193.159C422.936 193.458 423.343 193.778 423.638 194.119C423.934 194.461 424.091 194.797 424.109 195.127L422.737 195.407C422.691 195.103 422.553 194.81 422.322 194.527C422.1 194.239 421.804 193.989 421.435 193.775C420.918 193.477 420.437 193.311 419.994 193.279C419.55 193.247 419.172 193.322 418.858 193.503C418.617 193.642 418.493 193.799 418.484 193.975C418.493 194.151 418.622 194.359 418.872 194.599L419.938 195.519C420.437 195.957 420.696 196.351 420.714 196.703C420.733 197.055 420.493 197.375 419.994 197.663C419.56 197.914 419.061 198.063 418.497 198.111C417.934 198.159 417.357 198.109 416.765 197.959C416.174 197.81 415.592 197.57 415.019 197.239ZM422.586 201.608C421.884 201.202 421.413 200.765 421.172 200.296C420.951 199.826 420.969 199.352 421.228 198.872C421.505 198.392 422.022 197.933 422.78 197.496C423.528 197.064 424.313 196.776 425.135 196.632C425.957 196.488 426.766 196.485 427.56 196.624C428.364 196.757 429.117 197.026 429.819 197.432C430.271 197.693 430.632 197.992 430.9 198.328C431.177 198.658 431.315 198.984 431.315 199.304L429.874 199.608C429.865 199.314 429.759 199.04 429.555 198.784C429.361 198.522 429.112 198.304 428.807 198.128C428.142 197.744 427.408 197.565 426.604 197.592C425.8 197.618 424.997 197.864 424.193 198.328C423.38 198.797 422.946 199.266 422.891 199.736C422.835 200.205 423.14 200.632 423.805 201.016C424.101 201.186 424.466 201.333 424.9 201.456C425.343 201.573 425.828 201.634 426.355 201.64L425.828 202.472C425.265 202.466 424.687 202.384 424.096 202.224C423.523 202.064 423.02 201.858 422.586 201.608ZM429.058 205.345C428.439 204.987 428.042 204.593 427.867 204.161C427.691 203.729 427.747 203.281 428.033 202.817C428.328 202.358 428.85 201.913 429.599 201.481C430.356 201.043 431.127 200.742 431.913 200.577C432.707 200.417 433.478 200.387 434.227 200.489C434.984 200.585 435.672 200.811 436.291 201.169C436.901 201.521 437.28 201.915 437.428 202.353C437.575 202.79 437.46 203.203 437.081 203.593L436.929 203.505L438.647 202.673L440.005 203.457C439.691 203.606 439.377 203.755 439.063 203.905C438.767 204.054 438.485 204.206 438.217 204.361L432.91 207.425L431.511 206.617L433.063 205.721L433.215 205.809C432.55 206.022 431.834 206.083 431.067 205.993C430.319 205.902 429.649 205.686 429.058 205.345ZM430.499 204.913C431.1 205.259 431.793 205.414 432.578 205.377C433.372 205.345 434.185 205.089 435.017 204.609C435.848 204.129 436.287 203.662 436.333 203.209C436.398 202.755 436.13 202.355 435.529 202.009C434.92 201.657 434.217 201.497 433.423 201.529C432.647 201.561 431.843 201.817 431.012 202.297C430.181 202.777 429.733 203.243 429.668 203.697C429.603 204.15 429.88 204.555 430.499 204.913ZM434.952 208.604L440.259 205.54C440.527 205.385 440.786 205.22 441.035 205.044C441.303 204.868 441.567 204.689 441.825 204.508L443.183 205.292L441.839 206.212L441.673 206.116C442.375 205.934 443.063 205.878 443.737 205.948C444.421 206.022 445.045 206.222 445.608 206.548C446.181 206.878 446.509 207.228 446.592 207.596C446.693 207.964 446.532 208.35 446.107 208.756L445.885 208.628C446.578 208.441 447.294 208.39 448.033 208.476C448.781 208.556 449.446 208.764 450.028 209.1C450.804 209.548 451.16 210.014 451.095 210.5C451.03 210.985 450.522 211.502 449.571 212.052L445.248 214.548L443.848 213.74L448.102 211.284C448.712 210.932 449.044 210.617 449.1 210.34C449.174 210.062 448.98 209.79 448.518 209.524C447.982 209.214 447.372 209.076 446.689 209.108C446.005 209.14 445.349 209.337 444.721 209.7L440.786 211.972L439.386 211.164L443.64 208.708C444.25 208.356 444.583 208.041 444.638 207.764C444.712 207.486 444.518 207.214 444.056 206.948C443.52 206.638 442.915 206.502 442.241 206.54C441.567 206.577 440.915 206.777 440.287 207.14L436.352 209.412L434.952 208.604ZM456.074 214.638L457.723 213.686L459.372 214.638L457.723 215.59L456.074 214.638ZM450.739 217.718L452.388 216.766L454.037 217.718L452.388 218.67L450.739 217.718ZM452.198 221.441L451.062 220.785C452.586 220.459 453.976 220.073 455.233 219.625C456.489 219.177 457.625 218.659 458.641 218.073C459.648 217.491 460.54 216.838 461.316 216.113C462.092 215.387 462.761 214.585 463.325 213.705L464.461 214.361C464.193 214.995 463.861 215.577 463.463 216.105C463.066 216.633 462.581 217.126 462.008 217.585C461.454 218.043 460.812 218.483 460.082 218.905C459.343 219.331 458.572 219.707 457.768 220.033C456.983 220.358 456.133 220.635 455.219 220.865C454.304 221.094 453.297 221.286 452.198 221.441Z" fill="white" fill-opacity="0.2"/>
<path d="M63.516 285.397L64.5716 281.107C64.6249 280.891 64.6597 280.669 64.676 280.442C64.7071 280.208 64.7318 279.974 64.7499 279.739L66.6512 279.895L66.5337 281.097L66.3009 281.078C66.7013 280.684 67.2385 280.404 67.9126 280.239C68.5886 280.066 69.334 280.012 70.1488 280.079C71.3 280.174 72.1215 280.428 72.6135 280.841C73.1185 281.256 73.2763 281.848 73.0871 282.617L72.2272 286.112L70.2676 285.951L71.111 282.524C71.2341 282.023 71.1477 281.651 70.8518 281.405C70.5706 281.154 70.0808 280.999 69.3824 280.942C68.5546 280.874 67.8582 280.969 67.2932 281.228C66.73 281.479 66.3869 281.854 66.2638 282.355L65.4756 285.558L63.516 285.397ZM75.0165 286.341L76.4056 280.695L78.3651 280.856L76.976 286.501L75.0165 286.341ZM76.5398 279.506L76.8292 278.33L79.0991 278.516L78.8097 279.693L76.5398 279.506ZM79.8479 286.737L80.9034 282.447C80.9567 282.23 80.9915 282.008 81.0079 281.781C81.0389 281.548 81.0636 281.313 81.0817 281.079L82.983 281.235L82.8655 282.436L82.6327 282.417C83.0331 282.023 83.5703 281.744 84.2444 281.578C84.9204 281.405 85.6658 281.352 86.4806 281.419C87.6318 281.513 88.4533 281.767 88.9453 282.181C89.4503 282.596 89.6081 283.187 89.4189 283.957L88.559 287.451L86.5994 287.291L87.4428 283.863C87.5659 283.363 87.4795 282.99 87.1836 282.745C86.9024 282.493 86.4126 282.339 85.7142 282.281C84.8864 282.214 84.19 282.309 83.625 282.567C83.0619 282.818 82.7187 283.194 82.5956 283.694L81.8074 286.898L79.8479 286.737ZM95.135 290.55C94.2555 290.478 93.4683 290.353 92.7734 290.174C92.0914 289.996 91.4953 289.764 90.985 289.479L91.6739 288.69C92.0363 288.879 92.4005 289.035 92.7665 289.156C93.1306 289.285 93.5206 289.39 93.9364 289.469C94.3522 289.549 94.7864 289.608 95.2391 289.645C96.1704 289.721 96.9028 289.64 97.4364 289.402C97.9811 289.173 98.3169 288.8 98.4436 288.285L98.8157 286.773L99.0097 286.789C98.6999 287.19 98.1913 287.487 97.4839 287.681C96.7914 287.868 96.0247 287.927 95.184 287.858C94.2916 287.784 93.5431 287.609 92.9386 287.331C92.3488 287.046 91.9243 286.68 91.6651 286.232C91.4206 285.778 91.3691 285.263 91.5106 284.688C91.652 284.113 91.9488 283.631 92.4009 283.241C92.866 282.853 93.4494 282.573 94.1513 282.402C94.8679 282.225 95.6724 282.173 96.5648 282.246C97.4185 282.316 98.1254 282.5 98.6856 282.797C99.2606 283.088 99.6001 283.451 99.7041 283.886L99.5516 283.782L100.013 282.631L101.914 282.787C101.805 283.015 101.71 283.243 101.627 283.472C101.546 283.694 101.479 283.913 101.425 284.13L100.397 288.308C100.188 289.159 99.6336 289.777 98.7344 290.16C97.8481 290.544 96.6483 290.675 95.135 290.55ZM95.8674 287.011C96.721 287.081 97.4414 286.969 98.0285 286.674C98.6286 286.38 99.0039 285.927 99.1546 285.315C99.3053 284.703 99.1623 284.211 98.7258 283.84C98.3022 283.47 97.6636 283.25 96.81 283.18C95.9305 283.108 95.1916 283.215 94.5934 283.501C94.0081 283.788 93.6401 284.238 93.4895 284.85C93.3388 285.463 93.4743 285.958 93.8961 286.335C94.3308 286.713 94.9879 286.939 95.8674 287.011ZM106.676 289.04C105.499 288.944 104.658 288.688 104.153 288.273C103.663 287.852 103.512 287.257 103.701 286.488L104.559 283.004L106.518 283.165L105.666 286.626C105.551 287.097 105.633 287.458 105.915 287.709C106.196 287.961 106.679 288.115 107.365 288.171C108.141 288.235 108.805 288.137 109.357 287.877C109.909 287.618 110.245 287.242 110.367 286.749L111.155 283.545L113.115 283.706L111.725 289.351L109.824 289.196L110.122 287.986L110.374 288.006C109.999 288.402 109.486 288.692 108.834 288.874C108.184 289.05 107.465 289.105 106.676 289.04ZM119.091 290.058C117.513 289.929 116.335 289.57 115.556 288.98C114.778 288.391 114.501 287.64 114.725 286.729C114.87 286.139 115.191 285.64 115.687 285.231C116.196 284.823 116.83 284.529 117.587 284.347C118.359 284.159 119.211 284.103 120.142 284.18C121.06 284.255 121.802 284.43 122.368 284.705C122.934 284.98 123.328 285.336 123.55 285.773C123.774 286.203 123.818 286.694 123.682 287.247L123.594 287.605L116.222 287.001L116.381 286.351L122.415 286.846L122.05 286.964C122.187 286.404 122.074 285.953 121.71 285.611C121.36 285.262 120.778 285.054 119.963 284.988C119.057 284.913 118.314 285.039 117.732 285.365C117.153 285.683 116.785 286.159 116.629 286.794L116.601 286.906C116.438 287.571 116.593 288.094 117.066 288.475C117.552 288.858 118.313 289.092 119.348 289.177C119.917 289.223 120.458 289.222 120.972 289.173C121.5 289.117 122.017 289 122.523 288.82L122.973 289.645C122.464 289.84 121.87 289.974 121.192 290.048C120.516 290.114 119.816 290.118 119.091 290.058ZM125.187 290.456L126.242 286.165C126.296 285.949 126.33 285.727 126.347 285.5C126.378 285.266 126.402 285.032 126.421 284.797L128.322 284.953L128.204 286.155L127.971 286.136C128.344 285.747 128.836 285.464 129.447 285.286C130.072 285.108 130.778 285.052 131.567 285.117C132.369 285.182 132.995 285.348 133.444 285.613C133.908 285.872 134.181 286.238 134.263 286.709L133.953 286.684C134.312 286.294 134.832 286.005 135.512 285.817C136.193 285.622 136.941 285.557 137.756 285.624C138.843 285.713 139.612 285.963 140.066 286.374C140.519 286.784 140.651 287.374 140.462 288.143L139.602 291.638L137.642 291.477L138.488 288.038C138.61 287.545 138.548 287.179 138.304 286.938C138.074 286.69 137.636 286.54 136.99 286.487C136.24 286.425 135.608 286.526 135.095 286.789C134.581 287.051 134.262 287.436 134.137 287.944L133.355 291.125L131.395 290.965L132.241 287.526C132.362 287.033 132.301 286.666 132.057 286.425C131.827 286.178 131.389 286.028 130.743 285.975C129.992 285.913 129.367 286.014 128.867 286.278C128.366 286.542 128.054 286.927 127.929 287.435L127.146 290.616L125.187 290.456ZM151.359 292.705C150.299 292.618 149.537 292.388 149.075 292.015C148.614 291.634 148.466 291.112 148.629 290.447L149.337 287.568L147.436 287.412L147.651 286.539L149.552 286.695L149.919 285.205L151.953 285.063L151.512 286.855L154.228 287.078L154.013 287.952L151.297 287.729L150.613 290.507C150.511 290.925 150.566 291.234 150.781 291.435C150.996 291.635 151.349 291.756 151.84 291.796C152.086 291.816 152.302 291.822 152.489 291.815C152.69 291.801 152.873 291.782 153.037 291.757L152.811 292.676C152.606 292.704 152.372 292.719 152.107 292.721C151.841 292.729 151.592 292.724 151.359 292.705ZM159.03 293.334C157.452 293.205 156.274 292.845 155.495 292.256C154.717 291.666 154.44 290.916 154.664 290.005C154.809 289.415 155.13 288.916 155.626 288.507C156.136 288.099 156.769 287.804 157.526 287.623C158.298 287.435 159.15 287.379 160.081 287.455C160.999 287.531 161.741 287.706 162.307 287.981C162.873 288.256 163.267 288.612 163.489 289.049C163.713 289.479 163.757 289.97 163.621 290.522L163.533 290.881L156.161 290.276L156.32 289.627L162.354 290.121L161.989 290.24C162.126 289.68 162.013 289.229 161.649 288.887C161.299 288.538 160.717 288.33 159.902 288.263C158.997 288.189 158.253 288.315 157.672 288.64C157.092 288.958 156.724 289.435 156.568 290.07L156.54 290.182C156.377 290.846 156.532 291.369 157.005 291.751C157.492 292.134 158.252 292.368 159.287 292.452C159.856 292.499 160.397 292.498 160.911 292.448C161.439 292.393 161.956 292.275 162.462 292.096L162.912 292.921C162.403 293.116 161.809 293.25 161.131 293.324C160.455 293.39 159.755 293.394 159.03 293.334ZM174.794 294.627C173.216 294.498 172.037 294.138 171.259 293.549C170.48 292.959 170.203 292.209 170.427 291.298C170.572 290.708 170.893 290.209 171.39 289.8C171.899 289.392 172.532 289.097 173.289 288.916C174.061 288.728 174.913 288.672 175.844 288.748C176.763 288.823 177.505 288.999 178.07 289.274C178.636 289.548 179.03 289.905 179.252 290.342C179.477 290.772 179.521 291.263 179.385 291.815L179.296 292.174L171.924 291.569L172.084 290.919L178.118 291.414L177.752 291.533C177.89 290.973 177.777 290.522 177.412 290.179C177.062 289.831 176.48 289.623 175.665 289.556C174.76 289.482 174.016 289.608 173.435 289.933C172.855 290.251 172.487 290.728 172.331 291.363L172.304 291.475C172.14 292.139 172.295 292.662 172.769 293.044C173.255 293.427 174.016 293.66 175.05 293.745C175.619 293.792 176.161 293.791 176.674 293.741C177.203 293.686 177.72 293.568 178.226 293.389L178.676 294.214C178.166 294.408 177.572 294.543 176.894 294.616C176.218 294.683 175.518 294.686 174.794 294.627ZM180.889 295.024L181.945 290.734C181.998 290.517 182.033 290.296 182.049 290.068C182.08 289.835 182.105 289.601 182.123 289.366L184.024 289.522L183.907 290.724L183.674 290.704C184.074 290.311 184.612 290.031 185.286 289.865C185.962 289.692 186.707 289.639 187.522 289.706C188.673 289.8 189.495 290.054 189.987 290.468C190.492 290.883 190.649 291.475 190.46 292.244L189.6 295.739L187.641 295.578L188.484 292.15C188.607 291.65 188.521 291.277 188.225 291.032C187.944 290.78 187.454 290.626 186.755 290.569C185.928 290.501 185.231 290.596 184.666 290.854C184.103 291.105 183.76 291.481 183.637 291.981L182.849 295.185L180.889 295.024ZM196.652 296.42C195.669 296.339 194.838 296.153 194.158 295.861C193.492 295.563 193.013 295.177 192.72 294.703C192.443 294.223 192.379 293.677 192.53 293.065C192.679 292.46 193.007 291.957 193.514 291.557C194.022 291.157 194.665 290.875 195.445 290.71C196.226 290.538 197.108 290.492 198.091 290.573C198.725 290.625 199.324 290.739 199.887 290.914C200.453 291.083 200.902 291.295 201.235 291.551L200.399 292.293C200.087 292.062 199.716 291.879 199.287 291.745C198.86 291.603 198.433 291.515 198.006 291.48C197.075 291.404 196.302 291.515 195.687 291.815C195.072 292.115 194.685 292.59 194.525 293.24C194.364 293.897 194.505 294.423 194.949 294.817C195.393 295.212 196.08 295.447 197.011 295.524C197.425 295.558 197.87 295.548 198.344 295.496C198.821 295.436 199.273 295.317 199.699 295.138L200.144 295.986C199.688 296.177 199.14 296.312 198.501 296.389C197.876 296.459 197.26 296.47 196.652 296.42ZM206.048 297.19C205.078 297.111 204.265 296.926 203.611 296.636C202.958 296.339 202.491 295.958 202.21 295.493C201.93 295.021 201.865 294.482 202.014 293.877C202.162 293.272 202.484 292.769 202.979 292.368C203.475 291.959 204.108 291.668 204.876 291.495C205.646 291.314 206.516 291.264 207.486 291.343C208.456 291.423 209.268 291.611 209.92 291.909C210.588 292.2 211.061 292.581 211.341 293.054C211.635 293.52 211.708 294.055 211.559 294.66C211.41 295.265 211.081 295.771 210.572 296.179C210.077 296.58 209.438 296.87 208.655 297.05C207.887 297.223 207.018 297.27 206.048 297.19ZM206.265 296.306C207.119 296.376 207.84 296.259 208.429 295.957C209.018 295.655 209.395 295.168 209.561 294.496C209.726 293.824 209.598 293.299 209.176 292.922C208.756 292.537 208.119 292.309 207.266 292.239C206.425 292.17 205.71 292.287 205.121 292.589C204.534 292.884 204.158 293.367 203.993 294.039C203.827 294.711 203.948 295.239 204.355 295.623C204.775 296.008 205.412 296.235 206.265 296.306ZM213.155 297.67L214.21 293.38C214.264 293.164 214.299 292.942 214.315 292.715C214.346 292.481 214.371 292.247 214.389 292.012L216.29 292.168L216.172 293.37L215.94 293.351C216.34 292.957 216.877 292.677 217.551 292.512C218.227 292.339 218.973 292.285 219.788 292.352C220.939 292.447 221.76 292.701 222.252 293.114C222.757 293.529 222.915 294.121 222.726 294.89L221.866 298.385L219.906 298.224L220.75 294.797C220.873 294.296 220.786 293.924 220.491 293.678C220.209 293.427 219.72 293.272 219.021 293.215C218.193 293.147 217.497 293.242 216.932 293.501C216.369 293.752 216.026 294.127 215.903 294.628L215.114 297.831L213.155 297.67ZM228.433 299.026C227.373 298.939 226.611 298.709 226.149 298.336C225.688 297.956 225.54 297.433 225.703 296.768L226.411 293.89L224.51 293.734L224.725 292.86L226.626 293.016L226.993 291.526L229.027 291.385L228.586 293.177L231.302 293.4L231.087 294.273L228.371 294.05L227.687 296.828C227.585 297.247 227.64 297.556 227.855 297.756C228.07 297.957 228.423 298.077 228.914 298.117C229.16 298.138 229.376 298.144 229.563 298.136C229.764 298.122 229.947 298.103 230.111 298.078L229.885 298.997C229.68 299.026 229.446 299.041 229.181 299.042C228.915 299.051 228.666 299.046 228.433 299.026ZM231.665 299.189L232.709 294.943C232.766 294.712 232.81 294.479 232.841 294.246C232.887 294.006 232.919 293.768 232.937 293.534L234.839 293.69L234.694 295.163L234.383 295.138C234.599 294.797 234.891 294.524 235.258 294.318C235.625 294.112 236.043 293.971 236.51 293.895C236.99 293.82 237.476 293.803 237.968 293.843C238.174 293.86 238.347 293.882 238.486 293.909C238.626 293.928 238.765 293.954 238.902 293.989L238.634 294.995C238.427 294.925 238.241 294.879 238.074 294.858C237.923 294.83 237.731 294.807 237.498 294.788C236.929 294.741 236.425 294.776 235.988 294.892C235.552 295.001 235.2 295.17 234.932 295.4C234.665 295.629 234.496 295.886 234.426 296.17L233.643 299.351L231.665 299.189ZM242.642 300.192C241.775 300.121 241.047 299.943 240.457 299.658C239.867 299.374 239.446 298.996 239.192 298.526C238.951 298.057 238.905 297.52 239.054 296.915C239.205 296.303 239.508 295.794 239.964 295.39C240.432 294.986 241.018 294.695 241.722 294.517C242.428 294.331 243.214 294.274 244.08 294.345C244.934 294.415 245.647 294.599 246.22 294.897C246.794 295.196 247.131 295.566 247.233 296.009L247.02 295.991L247.528 294.73L249.43 294.886C249.334 295.115 249.238 295.343 249.142 295.571C249.061 295.793 248.994 296.012 248.941 296.229L247.885 300.519L245.926 300.358L246.234 299.104L246.448 299.121C246.138 299.522 245.629 299.82 244.922 300.013C244.23 300.2 243.469 300.26 242.642 300.192ZM243.344 299.347C244.185 299.416 244.9 299.299 245.489 298.997C246.091 298.696 246.474 298.209 246.64 297.537C246.805 296.865 246.67 296.34 246.236 295.961C245.816 295.576 245.186 295.35 244.345 295.281C243.491 295.211 242.763 295.326 242.162 295.627C241.574 295.922 241.198 296.405 241.033 297.077C240.867 297.749 240.995 298.278 241.415 298.663C241.835 299.048 242.478 299.276 243.344 299.347ZM253.521 300.981L250.72 294.992L252.815 295.164L254.953 300.15L254.39 300.104L258.907 295.664L260.905 295.828L255.306 301.128L253.521 300.981ZM264.6 301.993C263.734 301.922 263.006 301.744 262.416 301.459C261.826 301.175 261.404 300.797 261.151 300.327C260.91 299.858 260.864 299.321 261.013 298.716C261.163 298.104 261.467 297.595 261.922 297.191C262.391 296.787 262.977 296.496 263.681 296.318C264.387 296.132 265.173 296.075 266.039 296.146C266.893 296.216 267.606 296.4 268.179 296.698C268.752 296.997 269.09 297.367 269.192 297.81L268.979 297.792L269.487 296.531L271.388 296.687C271.293 296.916 271.197 297.144 271.101 297.372C271.02 297.594 270.953 297.813 270.9 298.03L269.844 302.32L267.885 302.159L268.193 300.905L268.407 300.922C268.097 301.323 267.588 301.621 266.881 301.814C266.188 302.001 265.428 302.061 264.6 301.993ZM265.303 301.148C266.144 301.217 266.859 301.1 267.448 300.798C268.05 300.497 268.433 300.01 268.599 299.338C268.764 298.666 268.629 298.141 268.195 297.762C267.775 297.377 267.144 297.151 266.304 297.082C265.45 297.012 264.722 297.127 264.12 297.428C263.533 297.723 263.157 298.206 262.992 298.878C262.826 299.55 262.954 300.079 263.374 300.464C263.793 300.849 264.437 301.077 265.303 301.148Z" fill="white" fill-opacity="0.2"/>
<g clip-path="url(#clip7_1698_39)">
<path d="M548.511 200.5L547.356 201.167C548.275 201.697 548.791 202.417 548.791 203.167C548.791 203.917 548.275 204.636 547.356 205.167L548.511 205.833C549.736 205.126 550.424 204.167 550.424 203.167C550.424 202.166 549.736 201.207 548.511 200.5Z" fill="#34A853" fill-opacity="0.1"/>
<path d="M547.356 201.167L548.511 200.5C547.286 199.793 545.624 199.395 543.892 199.395C542.16 199.395 540.498 199.793 539.273 200.5L540.428 201.167C542.333 200.067 545.451 200.067 547.356 201.167Z" fill="#EA4335" fill-opacity="0.1"/>
<path d="M540.428 201.167L539.273 200.5C538.048 201.207 537.36 202.166 537.36 203.167C537.36 204.167 538.048 205.126 539.273 205.833L540.428 205.167C538.523 204.067 538.517 202.27 540.428 201.167Z" fill="#FBBC04" fill-opacity="0.1"/>
<path d="M544.706 210.697L544.706 206.903C546.146 206.802 547.485 206.425 548.511 205.833L547.356 205.167C546.437 205.697 545.191 205.995 543.892 205.995C542.593 205.995 541.347 205.697 540.428 205.167L539.273 205.833C540.341 206.45 541.675 206.793 543.061 206.9L543.061 210.693L544.706 210.697Z" fill="#4285F4" fill-opacity="0.1"/>
</g>
<path d="M556.342 217.688L555.909 217.438L555.476 217.688L555.909 217.938L556.342 217.688ZM564.905 212.744L565.338 212.994L565.771 212.744L565.338 212.494L564.905 212.744ZM561.566 210.816L561.133 210.566L560.7 210.816L561.133 211.066L561.566 210.816ZM562.771 210.12L563.204 209.87L562.771 209.62L562.338 209.87L562.771 210.12ZM570.891 214.808L571.324 215.058L571.757 214.808L571.324 214.558L570.891 214.808ZM569.686 215.504L569.253 215.754L569.686 216.004L570.119 215.754L569.686 215.504ZM566.346 213.576L566.779 213.326L566.346 213.076L565.913 213.326L566.346 213.576ZM557.783 218.52L557.35 218.77L557.783 219.02L558.216 218.77L557.783 218.52ZM556.775 217.938L565.338 212.994L564.472 212.494L555.909 217.438L556.775 217.938ZM565.338 212.494L561.999 210.566L561.133 211.066L564.472 212.994L565.338 212.494ZM561.999 211.066L563.204 210.37L562.338 209.87L561.133 210.566L561.999 211.066ZM562.338 210.37L570.458 215.058L571.324 214.558L563.204 209.87L562.338 210.37ZM570.458 214.558L569.253 215.254L570.119 215.754L571.324 215.058L570.458 214.558ZM570.119 215.254L566.779 213.326L565.913 213.826L569.253 215.754L570.119 215.254ZM565.913 213.326L557.35 218.27L558.216 218.77L566.779 213.826L565.913 213.326ZM558.216 218.27L556.775 217.438L555.909 217.938L557.35 218.77L558.216 218.27ZM562.774 221.049L562.182 221.14L562.184 221.144L562.774 221.049ZM562.843 219.649L562.261 219.54L562.259 219.542L562.843 219.649ZM566.709 217.417L566.895 217.754L566.899 217.753L566.709 217.417ZM569.134 217.377L568.969 217.718L568.977 217.719L569.134 217.377ZM572.736 219.457L572.144 219.548L572.148 219.555L572.736 219.457ZM572.681 220.865L572.099 220.756L572.095 220.763L572.681 220.865ZM568.815 223.097L568.633 222.76L568.629 222.76L568.815 223.097ZM566.376 223.129L566.212 223.47L566.215 223.47L566.376 223.129ZM567.332 222.177L567.282 221.825L567.332 222.177ZM571.088 220.009L570.477 219.98L570.477 219.984L571.088 220.009ZM568.192 218.337L568.235 218.69L568.242 218.69L568.192 218.337ZM564.423 220.497L563.813 220.464L563.812 220.468L564.423 220.497ZM564.579 222.087C563.946 221.722 563.552 221.344 563.364 220.954L562.184 221.144C562.439 221.672 562.959 222.152 563.712 222.587L564.579 222.087ZM563.366 220.959C563.184 220.562 563.202 220.164 563.427 219.757L562.259 219.542C561.966 220.074 561.939 220.609 562.182 221.14L563.366 220.959ZM563.425 219.759C563.657 219.348 564.105 218.941 564.8 218.539L563.934 218.039C563.133 218.502 562.564 219.002 562.261 219.54L563.425 219.759ZM564.8 218.539C565.496 218.138 566.195 217.883 566.895 217.754L566.523 217.08C565.597 217.251 564.735 217.577 563.934 218.039L564.8 218.539ZM566.899 217.753C567.612 217.619 568.297 217.61 568.969 217.718L569.298 217.037C568.382 216.889 567.45 216.906 566.519 217.081L566.899 217.753ZM568.977 217.719C569.659 217.823 570.315 218.048 570.946 218.411L571.812 217.911C571.056 217.475 570.216 217.177 569.29 217.036L568.977 217.719ZM570.946 218.411C571.576 218.775 571.964 219.154 572.144 219.548L573.329 219.367C573.084 218.833 572.567 218.348 571.812 217.911L570.946 218.411ZM572.148 219.555C572.344 219.949 572.33 220.346 572.099 220.756L573.263 220.975C573.568 220.435 573.591 219.894 573.325 219.36L572.148 219.555ZM572.095 220.763C571.881 221.17 571.445 221.575 570.752 221.975L571.618 222.475C572.421 222.012 572.982 221.51 573.267 220.968L572.095 220.763ZM570.752 221.975C570.059 222.375 569.352 222.631 568.633 222.76L568.997 223.435C569.941 223.265 570.814 222.939 571.618 222.475L570.752 221.975ZM568.629 222.76C567.928 222.889 567.235 222.898 566.538 222.788L566.215 223.47C567.144 223.617 568.077 223.604 569.001 223.434L568.629 222.76ZM566.541 222.789C565.866 222.68 565.211 222.452 564.579 222.087L563.712 222.587C564.466 223.022 565.298 223.323 566.212 223.47L566.541 222.789ZM564.807 221.955C565.53 222.373 566.4 222.576 567.383 222.53L567.282 221.825C566.695 221.853 566.169 221.742 565.673 221.455L564.807 221.955ZM567.383 222.53C568.369 222.483 569.305 222.162 570.19 221.651L569.324 221.151C568.547 221.6 567.866 221.797 567.282 221.825L567.383 222.53ZM570.19 221.651C571.075 221.141 571.628 220.601 571.698 220.035L570.477 219.984C570.436 220.313 570.103 220.702 569.324 221.151L570.19 221.651ZM571.698 220.038C571.779 219.471 571.426 218.969 570.703 218.551L569.837 219.051C570.333 219.338 570.526 219.641 570.477 219.98L571.698 220.038ZM570.703 218.551C569.987 218.138 569.121 217.938 568.141 217.985L568.242 218.69C568.832 218.662 569.353 218.772 569.837 219.051L570.703 218.551ZM568.148 217.985C567.166 218.025 566.232 218.345 565.348 218.855L566.214 219.355C566.992 218.906 567.665 218.713 568.235 218.69L568.148 217.985ZM565.348 218.855C564.465 219.365 563.906 219.901 563.813 220.464L565.032 220.531C565.087 220.197 565.434 219.806 566.214 219.355L565.348 218.855ZM563.812 220.468C563.731 221.036 564.084 221.538 564.807 221.955L565.673 221.455C565.177 221.169 564.985 220.866 565.033 220.526L563.812 220.468ZM570.686 225.618L570.09 225.698L570.092 225.702L570.686 225.618ZM570.853 224.274L570.279 224.15L570.276 224.155L570.853 224.274ZM574.733 222.034L574.531 221.7L574.523 221.702L574.733 222.034ZM577.047 221.946L576.907 222.29L576.91 222.29L577.047 221.946ZM580.234 223.802L579.632 223.869L579.635 223.878L580.234 223.802ZM579.929 225.034L579.496 225.284L580.07 225.615L580.464 225.205L579.929 225.034ZM579.762 224.938L579.329 224.688L578.896 224.938L579.329 225.188L579.762 224.938ZM584.529 222.186L584.962 221.936L584.529 221.686L584.096 221.936L584.529 222.186ZM585.929 222.994L586.362 223.244L586.795 222.994L586.362 222.744L585.929 222.994ZM575.73 228.882L575.297 229.132L575.73 229.382L576.163 229.132L575.73 228.882ZM574.345 228.082L573.912 227.832L573.479 228.082L573.912 228.332L574.345 228.082ZM575.924 227.17L576.357 226.92L575.924 226.67L575.491 226.92L575.924 227.17ZM576.09 227.266L576.382 227.577L577.105 227.351L576.524 227.016L576.09 227.266ZM573.929 227.458L573.812 227.805L573.929 227.458ZM575.412 226.842L575.369 226.489L575.412 226.842ZM579.167 224.674L578.556 224.649L578.555 224.653L579.167 224.674ZM576.243 222.986L576.2 222.633L576.199 222.633L576.243 222.986ZM572.488 225.154L571.877 225.125L571.877 225.129L572.488 225.154ZM572.311 226.552C571.772 226.241 571.437 225.902 571.281 225.534L570.092 225.702C570.306 226.208 570.765 226.659 571.445 227.052L572.311 226.552ZM571.283 225.537C571.137 225.178 571.178 224.8 571.43 224.392L570.276 224.155C569.955 224.676 569.885 225.193 570.09 225.698L571.283 225.537ZM571.427 224.397C571.685 223.996 572.15 223.593 572.852 223.188L571.986 222.688C571.19 223.147 570.612 223.634 570.279 224.15L571.427 224.397ZM572.852 223.188C573.563 222.777 574.261 222.509 574.942 222.366L574.523 221.702C573.634 221.889 572.789 222.224 571.986 222.688L572.852 223.188ZM574.934 222.368C575.63 222.228 576.282 222.205 576.907 222.29L577.186 221.602C576.314 221.483 575.424 221.52 574.531 221.7L574.934 222.368ZM576.91 222.29C577.554 222.375 578.142 222.566 578.678 222.876L579.544 222.376C578.861 221.981 578.073 221.719 577.183 221.601L576.91 222.29ZM578.678 222.876C579.201 223.178 579.51 223.508 579.633 223.869L580.835 223.734C580.661 223.221 580.222 222.767 579.544 222.376L578.678 222.876ZM579.635 223.878C579.77 224.233 579.689 224.555 579.393 224.862L580.464 225.205C580.908 224.745 581.029 224.246 580.832 223.726L579.635 223.878ZM580.362 224.784L580.195 224.688L579.329 225.188L579.496 225.284L580.362 224.784ZM580.195 225.188L584.962 222.436L584.096 221.936L579.329 224.688L580.195 225.188ZM584.096 222.436L585.496 223.244L586.362 222.744L584.962 221.936L584.096 222.436ZM585.496 222.744L575.297 228.632L576.163 229.132L586.362 223.244L585.496 222.744ZM576.163 228.632L574.778 227.832L573.912 228.332L575.297 229.132L576.163 228.632ZM574.778 228.332L576.357 227.42L575.491 226.92L573.912 227.832L574.778 228.332ZM575.491 227.42L575.657 227.516L576.524 227.016L576.357 226.92L575.491 227.42ZM575.799 226.955C575.24 227.129 574.663 227.18 574.046 227.111L573.812 227.805C574.709 227.906 575.574 227.829 576.382 227.577L575.799 226.955ZM574.046 227.111C573.422 227.04 572.845 226.86 572.311 226.552L571.445 227.052C572.131 227.447 572.921 227.704 573.812 227.805L574.046 227.111ZM572.886 226.62C573.603 227.033 574.47 227.234 575.454 227.194L575.369 226.489C574.764 226.513 574.237 226.399 573.752 226.12L572.886 226.62ZM575.454 227.194C576.452 227.154 577.396 226.836 578.283 226.324L577.417 225.824C576.642 226.271 575.96 226.465 575.369 226.489L575.454 227.194ZM578.283 226.324C579.17 225.812 579.719 225.268 579.778 224.695L578.555 224.653C578.521 224.986 578.194 225.376 577.417 225.824L578.283 226.324ZM579.778 224.698C579.846 224.13 579.498 223.629 578.782 223.216L577.916 223.716C578.401 223.995 578.598 224.3 578.556 224.649L579.778 224.698ZM578.782 223.216C578.059 222.798 577.187 222.593 576.2 222.633L576.286 223.338C576.887 223.314 577.42 223.429 577.916 223.716L578.782 223.216ZM576.199 222.633C575.217 222.674 574.283 222.993 573.399 223.504L574.265 224.004C575.044 223.554 575.717 223.362 576.287 223.338L576.199 222.633ZM573.399 223.504C572.514 224.015 571.959 224.555 571.878 225.125L573.098 225.183C573.146 224.845 573.487 224.453 574.265 224.004L573.399 223.504ZM571.877 225.129C571.808 225.699 572.163 226.202 572.886 226.62L573.752 226.12C573.256 225.833 573.057 225.526 573.099 225.178L571.877 225.129ZM579.13 230.493L579.726 230.412L579.13 230.493ZM579.297 229.149L578.723 229.025L578.72 229.03L579.297 229.149ZM583.176 226.909L582.975 226.575L582.966 226.577L583.176 226.909ZM585.49 226.821L585.35 227.165L585.359 227.166L585.49 226.821ZM588.691 228.685L589.292 228.617L588.691 228.685ZM588.345 229.925L587.912 230.175L588.483 230.505L588.879 230.098L588.345 229.925ZM588.192 229.837L587.799 229.566L587.287 229.814L587.759 230.087L588.192 229.837ZM589.911 229.005L590.344 228.755L589.947 228.526L589.517 228.734L589.911 229.005ZM591.268 229.789L591.658 230.062L592.178 229.814L591.701 229.539L591.268 229.789ZM590.326 230.237L589.937 229.964L589.93 229.967L589.923 229.971L590.326 230.237ZM584.174 233.757L583.741 234.007L584.174 234.257L584.607 234.007L584.174 233.757ZM582.774 232.949L582.341 232.699L581.908 232.949L582.341 233.199L582.774 232.949ZM584.326 232.053L584.759 231.803L584.326 231.553L583.893 231.803L584.326 232.053ZM584.479 232.141L584.776 232.45L585.486 232.222L584.912 231.891L584.479 232.141ZM582.331 232.325L582.205 232.671L582.208 232.671L582.331 232.325ZM583.841 231.709L583.799 231.356L583.791 231.356L583.841 231.709ZM587.597 229.541L586.986 229.512L586.985 229.52L587.597 229.541ZM584.687 227.861L584.644 227.508L584.643 227.508L584.687 227.861ZM580.932 230.029L581.542 230.058L580.932 230.029ZM580.755 231.427C580.205 231.109 579.872 230.771 579.726 230.412L578.534 230.573C578.739 231.078 579.201 231.529 579.889 231.927L580.755 231.427ZM579.726 230.412C579.581 230.053 579.622 229.675 579.873 229.267L578.72 229.03C578.398 229.551 578.329 230.068 578.534 230.573L579.726 230.412ZM579.87 229.272C580.129 228.871 580.594 228.468 581.295 228.063L580.429 227.563C579.634 228.022 579.055 228.509 578.723 229.025L579.87 229.272ZM581.295 228.063C582.007 227.652 582.705 227.384 583.386 227.241L582.966 226.577C582.077 226.764 581.233 227.099 580.429 227.563L581.295 228.063ZM583.378 227.243C584.073 227.103 584.726 227.08 585.35 227.165L585.63 226.477C584.758 226.358 583.868 226.395 582.975 226.575L583.378 227.243ZM585.359 227.166C585.988 227.246 586.575 227.435 587.122 227.751L587.988 227.251C587.297 226.852 586.508 226.588 585.622 226.475L585.359 227.166ZM587.122 227.751C587.656 228.059 587.968 228.392 588.09 228.752L589.292 228.617C589.118 228.103 588.673 227.646 587.988 227.251L587.122 227.751ZM588.09 228.752C588.21 229.107 588.119 229.435 587.811 229.752L588.879 230.098C589.328 229.636 589.468 229.137 589.292 228.617L588.09 228.752ZM588.778 229.675L588.625 229.587L587.759 230.087L587.912 230.175L588.778 229.675ZM588.586 230.108L590.304 229.276L589.517 228.734L587.799 229.566L588.586 230.108ZM589.478 229.255L590.835 230.039L591.701 229.539L590.344 228.755L589.478 229.255ZM590.879 229.516C590.565 229.665 590.251 229.814 589.937 229.964L590.716 230.51C591.03 230.36 591.344 230.211 591.658 230.062L590.879 229.516ZM589.923 229.971C589.618 230.125 589.326 230.282 589.048 230.443L589.914 230.943C590.172 230.794 590.444 230.647 590.729 230.503L589.923 229.971ZM589.048 230.443L583.741 233.507L584.607 234.007L589.914 230.943L589.048 230.443ZM584.607 233.507L583.207 232.699L582.341 233.199L583.741 234.007L584.607 233.507ZM583.207 233.199L584.759 232.303L583.893 231.803L582.341 232.699L583.207 233.199ZM583.893 232.303L584.046 232.391L584.912 231.891L584.759 231.803L583.893 232.303ZM584.181 231.832C583.648 232.003 583.082 232.053 582.454 231.978L582.208 232.671C583.114 232.778 583.979 232.705 584.776 232.45L584.181 231.832ZM582.457 231.979C581.836 231.903 581.27 231.724 580.755 231.427L579.889 231.927C580.556 232.312 581.33 232.565 582.205 232.671L582.457 231.979ZM581.33 231.495C582.046 231.908 582.912 232.108 583.892 232.061L583.791 231.356C583.201 231.384 582.68 231.274 582.196 230.995L581.33 231.495ZM583.884 232.061C584.882 232.021 585.826 231.703 586.713 231.191L585.847 230.691C585.072 231.138 584.39 231.332 583.799 231.356L583.884 232.061ZM586.713 231.191C587.6 230.679 588.149 230.135 588.208 229.562L586.985 229.52C586.951 229.853 586.624 230.243 585.847 230.691L586.713 231.191ZM588.207 229.57C588.287 229.004 587.942 228.504 587.226 228.091L586.36 228.591C586.844 228.87 587.035 229.171 586.986 229.512L588.207 229.57ZM587.226 228.091C586.503 227.673 585.631 227.468 584.644 227.508L584.729 228.213C585.331 228.189 585.864 228.304 586.36 228.591L587.226 228.091ZM584.643 227.508C583.661 227.549 582.727 227.868 581.843 228.379L582.709 228.879C583.487 228.429 584.16 228.237 584.73 228.213L584.643 227.508ZM581.843 228.379C580.958 228.89 580.402 229.43 580.321 230L581.542 230.058C581.59 229.72 581.931 229.328 582.709 228.879L581.843 228.379ZM580.321 230C580.24 230.569 580.6 231.073 581.33 231.495L582.196 230.995C581.688 230.702 581.494 230.395 581.542 230.058L580.321 230ZM587.103 235.336L587.643 235.169L587.103 235.336ZM586.507 234.272L586.29 233.941L585.854 234.037L585.897 234.305L586.507 234.272ZM587.893 233.968L588.499 233.919L588.394 233.48L587.675 233.637L587.893 233.968ZM588.447 234.96L587.905 235.124L588.447 234.96ZM590.941 236.32L590.826 236.667L590.84 236.668L590.941 236.32ZM592.41 235.632L591.798 235.642L591.798 235.647L591.799 235.653L592.41 235.632ZM591.953 234.984L592.462 234.788L592.461 234.787L591.953 234.984ZM590.886 234.064L590.37 234.255L590.377 234.26L590.886 234.064ZM590.207 232.904L590.819 232.909L590.207 232.904ZM592.396 231.496L592.295 231.147L592.284 231.148L592.396 231.496ZM594.128 231.616L594.353 231.287L594.348 231.286L594.128 231.616ZM597.107 233.272L596.559 233.43L597.107 233.272ZM597.578 234.28L597.782 234.613L598.205 234.527L598.19 234.268L597.578 234.28ZM596.207 234.56L595.596 234.591L595.666 235.045L596.411 234.893L596.207 234.56ZM595.791 233.68L595.231 233.823L595.237 233.831L595.791 233.68ZM593.463 232.432L593.539 232.081L593.463 232.432ZM591.953 233.128L591.341 233.117L591.34 233.128L591.341 233.138L591.953 233.128ZM592.341 233.752L591.815 233.934L591.823 233.941L591.832 233.948L592.341 233.752ZM593.408 234.672L593.919 234.477L593.916 234.475L593.408 234.672ZM594.183 235.856L593.571 235.866L594.183 235.856ZM591.966 237.264L591.877 236.914L591.966 237.264ZM590.234 237.112L590.48 236.788L590.234 237.112ZM588.922 236.142C588.376 235.827 587.952 235.502 587.643 235.169L586.563 235.503C586.937 235.905 587.437 236.285 588.055 236.642L588.922 236.142ZM587.643 235.169C587.331 234.833 587.163 234.524 587.117 234.239L585.897 234.305C585.962 234.702 586.191 235.102 586.563 235.503L587.643 235.169ZM586.725 234.602L588.11 234.298L587.675 233.637L586.29 233.941L586.725 234.602ZM587.286 234.016C587.379 234.404 587.586 234.774 587.905 235.124L588.989 234.795C588.735 234.516 588.573 234.225 588.499 233.919L587.286 234.016ZM587.905 235.124C588.22 235.47 588.617 235.782 589.095 236.058L589.961 235.558C589.57 235.332 589.247 235.079 588.989 234.795L587.905 235.124ZM589.095 236.058C589.64 236.373 590.217 236.6 590.826 236.667L591.056 235.973C590.796 235.944 590.431 235.83 589.961 235.558L589.095 236.058ZM590.84 236.668C591.476 236.73 592.054 236.625 592.51 236.362L591.644 235.862C591.472 235.961 591.293 235.995 591.042 235.971L590.84 236.668ZM592.51 236.362C592.863 236.158 593.051 235.902 593.021 235.611L591.799 235.653C591.806 235.724 591.772 235.788 591.644 235.862L592.51 236.362ZM593.022 235.621C593.008 235.346 592.78 235.063 592.462 234.788L591.443 235.18C591.717 235.417 591.794 235.565 591.798 235.642L593.022 235.621ZM592.461 234.787L591.395 233.867L590.377 234.26L591.444 235.18L592.461 234.787ZM591.401 233.873C590.98 233.494 590.812 233.175 590.819 232.909L589.594 232.898C589.583 233.347 589.867 233.802 590.37 234.255L591.401 233.873ZM590.819 232.909C590.826 232.655 590.996 232.42 591.388 232.194L590.522 231.694C589.934 232.033 589.606 232.438 589.594 232.898L590.819 232.909ZM591.388 232.194C591.722 232.001 592.092 231.888 592.508 231.843L592.284 231.148C591.61 231.221 591.019 231.406 590.522 231.694L591.388 232.194ZM592.497 231.844C592.928 231.803 593.395 231.832 593.908 231.946L594.348 231.286C593.66 231.133 592.972 231.082 592.295 231.147L592.497 231.844ZM593.904 231.945C594.42 232.062 594.938 232.263 595.455 232.562L596.321 232.062C595.71 231.709 595.055 231.447 594.353 231.287L593.904 231.945ZM595.455 232.562C595.931 232.836 596.296 233.126 596.559 233.43L597.655 233.114C597.327 232.735 596.88 232.384 596.321 232.062L595.455 232.562ZM596.559 233.43C596.822 233.733 596.951 234.019 596.966 234.291L598.19 234.268C598.169 233.879 597.984 233.494 597.655 233.114L596.559 233.43ZM597.374 233.946L596.002 234.226L596.411 234.893L597.782 234.613L597.374 233.946ZM596.817 234.529C596.764 234.182 596.606 233.848 596.345 233.529L595.237 233.831C595.438 234.076 595.557 234.329 595.596 234.591L596.817 234.529ZM596.35 233.536C596.1 233.21 595.762 232.923 595.337 232.678L594.471 233.178C594.785 233.359 595.039 233.573 595.231 233.823L596.35 233.536ZM595.337 232.678C594.78 232.356 594.18 232.127 593.539 232.081L593.387 232.783C593.633 232.8 593.993 232.902 594.471 233.178L595.337 232.678ZM593.539 232.081C592.909 232.035 592.342 232.147 591.894 232.406L592.76 232.906C592.939 232.802 593.13 232.764 593.387 232.783L593.539 232.081ZM591.894 232.406C591.557 232.6 591.355 232.84 591.341 233.117L592.565 233.138C592.569 233.063 592.616 232.989 592.76 232.906L591.894 232.406ZM591.341 233.138C591.354 233.4 591.541 233.669 591.815 233.934L592.866 233.57C592.641 233.354 592.569 233.207 592.565 233.117L591.341 233.138ZM591.832 233.948L592.899 234.868L593.916 234.475L592.849 233.555L591.832 233.948ZM592.896 234.866C593.361 235.274 593.558 235.604 593.571 235.866L594.796 235.845C594.772 235.403 594.452 234.944 593.919 234.477L592.896 234.866ZM593.571 235.866C593.584 236.106 593.43 236.335 593.03 236.566L593.896 237.066C594.494 236.721 594.82 236.31 594.796 235.845L593.571 235.866ZM593.03 236.566C592.681 236.767 592.3 236.878 591.877 236.914L592.056 237.614C592.76 237.554 593.376 237.366 593.896 237.066L593.03 236.566ZM591.877 236.914C591.442 236.951 590.98 236.914 590.48 236.788L589.989 237.436C590.671 237.608 591.364 237.672 592.056 237.614L591.877 236.914ZM590.48 236.788C589.974 236.66 589.454 236.449 588.922 236.142L588.055 236.642C588.669 236.996 589.312 237.265 589.989 237.436L590.48 236.788Z" fill="white" fill-opacity="0.1"/>
</g>
<rect x="-2.98023e-08" y="0.5" width="651" height="497" transform="matrix(0.866025 0.5 -0.866025 0.5 432.608 18.25)" stroke="white" stroke-opacity="0.1"/>
<circle r="3" transform="matrix(0.866025 0.5 -0.866025 0.5 457.29 14.5)" fill="white" fill-opacity="0.2"/>
<circle opacity="0.6" r="3" transform="matrix(0.866025 0.5 -0.866025 0.5 465.95 19.5)" fill="white" fill-opacity="0.2"/>
<circle opacity="0.3" r="3" transform="matrix(0.866025 0.5 -0.866025 0.5 474.61 24.5)" fill="white" fill-opacity="0.2"/>
<g clip-path="url(#clip8_1698_39)">
<path d="M492.709 32.2896L493.458 32.7215" stroke="white" stroke-opacity="0.2" stroke-width="1.05984" stroke-linecap="square" stroke-linejoin="round"/>
<path d="M491.213 33.1533L491.962 33.5853" stroke="white" stroke-opacity="0.2" stroke-width="1.05984" stroke-linecap="square" stroke-linejoin="round"/>
<rect x="3.15857e-08" y="-0.52992" width="13.1539" height="10.5623" rx="1.58976" transform="matrix(0.866025 0.5 -0.866025 0.5 492.251 30.2968)" stroke="white" stroke-opacity="0.2" stroke-width="1.05984"/>
<path d="M496.825 32.5056L487.847 37.6888" stroke="white" stroke-opacity="0.2" stroke-width="1.05984" stroke-linecap="square" stroke-linejoin="round"/>
</g>
<path d="M518.778 46L511.667 46.1053L511.503 49.8" stroke="white" stroke-opacity="0.2" stroke-width="1.56608" stroke-linecap="round" stroke-linejoin="round"/>
<path opacity="0.5" d="M525.706 58L532.816 57.8947L532.98 54.2" stroke="white" stroke-opacity="0.2" stroke-width="1.56608" stroke-linecap="round" stroke-linejoin="round"/>
<path d="M575.75 78.8546L573.564 75.717C573.497 75.6215 573.398 75.535 573.272 75.4625C573.146 75.3899 572.996 75.3327 572.831 75.2942L567.397 74.0317C566.891 73.9134 566.304 73.9844 565.91 74.2118C561.881 76.5382 561.368 79.4581 562.586 81.2069C562.721 81.3995 562.985 81.5519 563.318 81.6297C565.744 82.1933 570.944 82.3054 575.436 79.7118C575.83 79.4844 575.953 79.1452 575.75 78.8546ZM564.214 80.6934L571.946 76.2269L573.949 79.1015C570.81 80.8381 567.019 81.2209 564.214 80.6934Z" fill="white" fill-opacity="0.2"/>
<path d="M705.48 156.257L704.864 155.901L706.189 155.136C707.789 154.212 707.887 153.183 706.206 152.212C704.524 151.241 702.741 151.298 701.142 152.221L699.816 152.987L699.074 152.558C698.725 152.357 698.086 152.4 697.781 152.576L693.021 155.324C692.718 155.499 692.662 155.843 692.899 156.087L693.441 156.647C693.739 156.937 694.096 157.209 694.503 157.455L697.124 158.968C697.55 159.203 698.021 159.409 698.524 159.581L699.492 159.893C699.915 160.031 700.512 159.999 700.815 159.824L705.575 157.076C705.88 156.9 705.828 156.458 705.48 156.257ZM703.602 155.172L701.078 153.715L702.625 152.822C703.423 152.361 704.342 152.411 705.101 152.85C705.86 153.288 705.947 153.819 705.149 154.279L703.602 155.172Z" fill="white" fill-opacity="0.2"/>
<path d="M709.877 165.331L713.13 161.161L714.221 161.791L711.405 165.205L711.135 165.049L717.089 163.447L717.9 163.915L715.115 167.347L714.855 167.197L720.768 165.571L721.818 166.177L714.585 168.049L713.629 167.497L716.435 163.981L716.923 164.263L710.854 165.895L709.877 165.331ZM719.153 170.687L722.406 166.517L723.497 167.147L720.681 170.561L720.411 170.405L726.365 168.803L727.176 169.271L724.391 172.703L724.131 172.553L730.044 170.927L731.094 171.533L723.861 173.405L722.905 172.853L725.711 169.337L726.199 169.619L720.13 171.251L719.153 170.687ZM728.429 176.042L731.682 171.872L732.773 172.502L729.957 175.916L729.687 175.76L735.641 174.158L736.452 174.626L733.667 178.058L733.407 177.908L739.32 176.282L740.37 176.888L733.137 178.76L732.181 178.208L734.987 174.692L735.475 174.974L729.406 176.606L728.429 176.042ZM735.435 180.087L736.672 179.373L737.909 180.087L736.672 180.801L735.435 180.087ZM739.802 182.717C739.366 182.465 739.019 182.201 738.763 181.925C738.507 181.649 738.358 181.383 738.316 181.127L739.355 180.899C739.418 181.159 739.556 181.407 739.771 181.643C739.986 181.879 740.256 182.091 740.582 182.279C740.963 182.499 741.316 182.627 741.642 182.663C741.974 182.695 742.258 182.643 742.494 182.507C742.674 182.403 742.757 182.283 742.743 182.147C742.736 182.015 742.622 181.853 742.4 181.661L741.6 180.971C741.254 180.659 741.084 180.369 741.091 180.101C741.098 179.833 741.285 179.593 741.652 179.381C741.964 179.201 742.324 179.089 742.733 179.045C743.149 179.005 743.582 179.035 744.032 179.135C744.489 179.239 744.929 179.413 745.352 179.657C745.74 179.881 746.045 180.121 746.266 180.377C746.488 180.633 746.606 180.885 746.62 181.133L745.591 181.343C745.556 181.115 745.452 180.895 745.279 180.683C745.113 180.467 744.891 180.279 744.614 180.119C744.226 179.895 743.866 179.771 743.533 179.747C743.201 179.723 742.917 179.779 742.681 179.915C742.501 180.019 742.407 180.137 742.4 180.269C742.407 180.401 742.504 180.557 742.691 180.737L743.492 181.427C743.866 181.755 744.06 182.051 744.074 182.315C744.087 182.579 743.907 182.819 743.533 183.035C743.207 183.223 742.833 183.335 742.411 183.371C741.988 183.407 741.555 183.369 741.112 183.257C740.668 183.145 740.232 182.965 739.802 182.717ZM745.602 186.065C744.756 185.577 744.33 185.055 744.323 184.499C744.316 183.943 744.736 183.421 745.581 182.933C746.128 182.617 746.71 182.401 747.327 182.285C747.95 182.173 748.56 182.161 749.156 182.249C749.766 182.337 750.32 182.525 750.819 182.813C751.311 183.097 751.619 183.395 751.744 183.707C751.868 184.019 751.827 184.335 751.619 184.655C751.418 184.971 751.061 185.277 750.548 185.573L750.216 185.765L746.267 183.485L746.87 183.137L750.102 185.003L749.79 184.979C750.309 184.679 750.593 184.379 750.642 184.079C750.704 183.779 750.517 183.503 750.081 183.251C749.596 182.971 749.052 182.853 748.449 182.897C747.853 182.937 747.261 183.127 746.672 183.467L746.568 183.527C745.952 183.883 745.636 184.237 745.622 184.589C745.616 184.945 745.889 185.283 746.443 185.603C746.748 185.779 747.074 185.919 747.42 186.023C747.781 186.127 748.182 186.191 748.626 186.215L748.252 186.827C747.794 186.811 747.334 186.737 746.87 186.605C746.412 186.469 745.99 186.289 745.602 186.065ZM750.714 189.016C750.083 188.652 749.778 188.28 749.799 187.9C749.834 187.52 750.208 187.124 750.921 186.712L754.153 184.846L755.203 185.452L751.992 187.306C751.555 187.558 751.323 187.796 751.296 188.02C751.268 188.244 751.438 188.462 751.805 188.674C752.221 188.914 752.695 189.028 753.229 189.016C753.762 189.004 754.257 188.866 754.715 188.602L757.687 186.886L758.736 187.492L753.499 190.516L752.48 189.928L753.603 189.28L753.738 189.358C753.204 189.498 752.671 189.538 752.137 189.478C751.611 189.414 751.136 189.26 750.714 189.016ZM756.741 192.496C756.304 192.244 755.958 191.98 755.701 191.704C755.445 191.428 755.296 191.162 755.254 190.906L756.294 190.678C756.356 190.938 756.495 191.186 756.709 191.422C756.924 191.658 757.194 191.87 757.52 192.058C757.901 192.278 758.254 192.406 758.58 192.442C758.913 192.474 759.197 192.422 759.432 192.286C759.612 192.182 759.695 192.062 759.682 191.926C759.675 191.794 759.56 191.632 759.339 191.44L758.538 190.75C758.192 190.438 758.022 190.148 758.029 189.88C758.036 189.612 758.223 189.372 758.59 189.16C758.902 188.98 759.262 188.868 759.671 188.824C760.087 188.784 760.52 188.814 760.97 188.914C761.427 189.018 761.867 189.192 762.29 189.436C762.678 189.66 762.983 189.9 763.205 190.156C763.426 190.412 763.544 190.664 763.558 190.912L762.529 191.122C762.494 190.894 762.39 190.674 762.217 190.462C762.051 190.246 761.829 190.058 761.552 189.898C761.164 189.674 760.804 189.55 760.471 189.526C760.139 189.502 759.855 189.558 759.619 189.694C759.439 189.798 759.346 189.916 759.339 190.048C759.346 190.18 759.443 190.336 759.63 190.516L760.43 191.206C760.804 191.534 760.998 191.83 761.012 192.094C761.026 192.358 760.845 192.598 760.471 192.814C760.146 193.002 759.772 193.114 759.349 193.15C758.926 193.186 758.493 193.148 758.05 193.036C757.607 192.924 757.17 192.744 756.741 192.496ZM760.212 194.392L765.45 191.368L766.499 191.974L761.262 194.998L760.212 194.392ZM766.458 190.69L767.549 190.06L768.765 190.762L767.674 191.392L766.458 190.69ZM764.743 197.116C764.175 196.788 763.898 196.452 763.912 196.108C763.933 195.76 764.251 195.408 764.868 195.052L767.539 193.51L766.52 192.922L767.331 192.454L768.349 193.042L769.732 192.244L771.062 192.688L769.399 193.648L770.854 194.488L770.043 194.956L768.588 194.116L766.011 195.604C765.623 195.828 765.415 196.028 765.388 196.204C765.36 196.38 765.478 196.544 765.741 196.696C765.873 196.772 765.997 196.832 766.115 196.876C766.247 196.92 766.371 196.956 766.489 196.984L765.637 197.476C765.492 197.44 765.339 197.388 765.18 197.32C765.014 197.256 764.868 197.188 764.743 197.116ZM768.852 199.489C768.007 199.001 767.581 198.479 767.574 197.923C767.567 197.367 767.986 196.845 768.832 196.357C769.379 196.041 769.961 195.825 770.578 195.709C771.201 195.597 771.811 195.585 772.407 195.673C773.016 195.761 773.571 195.949 774.069 196.237C774.561 196.521 774.87 196.819 774.994 197.131C775.119 197.443 775.077 197.759 774.87 198.079C774.669 198.395 774.312 198.701 773.799 198.997L773.467 199.189L769.518 196.909L770.12 196.561L773.352 198.427L773.041 198.403C773.56 198.103 773.844 197.803 773.893 197.503C773.955 197.203 773.768 196.927 773.332 196.675C772.847 196.395 772.303 196.277 771.7 196.321C771.104 196.361 770.512 196.551 769.923 196.891L769.819 196.951C769.202 197.307 768.887 197.661 768.873 198.013C768.866 198.369 769.14 198.707 769.694 199.027C769.999 199.203 770.325 199.343 770.671 199.447C771.031 199.551 771.433 199.615 771.877 199.639L771.502 200.251C771.045 200.235 770.584 200.161 770.12 200.029C769.663 199.893 769.24 199.713 768.852 199.489ZM772.042 201.222L773.278 200.508L774.515 201.222L773.278 201.936L772.042 201.222ZM776.654 203.993C776.127 203.689 775.774 203.361 775.594 203.009C775.428 202.657 775.441 202.301 775.635 201.941C775.843 201.581 776.231 201.237 776.799 200.909C777.361 200.585 777.949 200.369 778.566 200.261C779.183 200.153 779.789 200.151 780.385 200.255C780.987 200.355 781.552 200.557 782.079 200.861C782.418 201.057 782.688 201.281 782.889 201.533C783.097 201.781 783.201 202.025 783.201 202.265L782.12 202.493C782.113 202.273 782.034 202.067 781.881 201.875C781.736 201.679 781.549 201.515 781.32 201.383C780.821 201.095 780.27 200.961 779.668 200.981C779.065 201.001 778.462 201.185 777.859 201.533C777.25 201.885 776.924 202.237 776.883 202.589C776.841 202.941 777.07 203.261 777.568 203.549C777.79 203.677 778.064 203.787 778.389 203.879C778.722 203.967 779.086 204.013 779.481 204.017L779.086 204.641C778.663 204.637 778.23 204.575 777.787 204.455C777.357 204.335 776.979 204.181 776.654 203.993ZM781.686 206.898C781.167 206.598 780.824 206.276 780.658 205.932C780.498 205.584 780.516 205.234 780.71 204.882C780.91 204.526 781.292 204.186 781.853 203.862C782.414 203.538 782.999 203.32 783.609 203.208C784.226 203.092 784.832 203.082 785.428 203.178C786.03 203.27 786.592 203.466 787.111 203.766C787.631 204.066 787.97 204.39 788.13 204.738C788.303 205.086 788.289 205.438 788.088 205.794C787.901 206.15 787.527 206.49 786.966 206.814C786.405 207.138 785.812 207.356 785.189 207.468C784.579 207.58 783.969 207.588 783.36 207.492C782.764 207.396 782.206 207.198 781.686 206.898ZM782.507 206.424C782.965 206.688 783.488 206.806 784.077 206.778C784.666 206.75 785.272 206.556 785.895 206.196C786.519 205.836 786.851 205.488 786.893 205.152C786.941 204.812 786.737 204.51 786.28 204.246C785.829 203.986 785.31 203.87 784.721 203.898C784.139 203.922 783.536 204.114 782.913 204.474C782.289 204.834 781.95 205.182 781.894 205.518C781.846 205.858 782.05 206.16 782.507 206.424ZM785.574 209.035L789.554 206.737C789.755 206.621 789.949 206.497 790.136 206.365C790.337 206.233 790.534 206.099 790.728 205.963L791.747 206.551L790.739 207.241L790.614 207.169C791.141 207.033 791.657 206.991 792.162 207.043C792.675 207.099 793.143 207.249 793.565 207.493C793.995 207.741 794.241 208.003 794.303 208.279C794.379 208.555 794.258 208.845 793.94 209.149L793.773 209.053C794.293 208.913 794.83 208.875 795.384 208.939C795.945 208.999 796.444 209.155 796.881 209.407C797.463 209.743 797.729 210.093 797.681 210.457C797.632 210.821 797.251 211.209 796.538 211.621L793.295 213.493L792.246 212.887L795.436 211.045C795.893 210.781 796.143 210.545 796.184 210.337C796.24 210.129 796.094 209.925 795.748 209.725C795.346 209.493 794.889 209.389 794.376 209.413C793.863 209.437 793.371 209.585 792.9 209.857L789.949 211.561L788.899 210.955L792.09 209.113C792.547 208.849 792.796 208.613 792.838 208.405C792.893 208.197 792.748 207.993 792.401 207.793C792 207.561 791.546 207.459 791.04 207.487C790.534 207.515 790.046 207.665 789.575 207.937L786.623 209.641L785.574 209.035ZM797.414 215.871L798.65 215.157L799.887 215.871L798.65 216.585L797.414 215.871ZM802.738 219.052C802.28 218.788 801.996 218.492 801.885 218.164C801.775 217.836 801.861 217.526 802.145 217.234L802.26 217.3L801.075 217.984L800.036 217.384L807.684 212.968L808.734 213.574L805.159 215.638L805.034 215.566C805.54 215.41 806.07 215.364 806.624 215.428C807.192 215.492 807.705 215.656 808.162 215.92C808.627 216.188 808.921 216.486 809.046 216.814C809.177 217.138 809.132 217.472 808.911 217.816C808.703 218.16 808.315 218.496 807.747 218.824C807.186 219.148 806.604 219.372 806.001 219.496C805.412 219.62 804.833 219.642 804.265 219.562C803.704 219.486 803.195 219.316 802.738 219.052ZM803.299 218.428C803.749 218.688 804.269 218.808 804.858 218.788C805.454 218.764 806.063 218.572 806.687 218.212C807.317 217.848 807.65 217.496 807.684 217.156C807.726 216.812 807.522 216.51 807.071 216.25C806.614 215.986 806.087 215.866 805.492 215.89C804.91 215.914 804.307 216.106 803.683 216.466C803.06 216.826 802.724 217.176 802.675 217.516C802.634 217.86 802.842 218.164 803.299 218.428ZM806.348 221.029L810.286 218.755C810.501 218.631 810.709 218.503 810.91 218.371C811.125 218.239 811.329 218.105 811.523 217.969L812.542 218.557L811.305 219.403L811.139 219.307C811.533 219.159 811.921 219.071 812.302 219.043C812.684 219.015 813.044 219.039 813.383 219.115C813.73 219.195 814.035 219.311 814.298 219.463C814.409 219.527 814.495 219.585 814.558 219.637C814.627 219.685 814.689 219.737 814.745 219.793L813.799 220.327C813.73 220.231 813.653 220.155 813.57 220.099C813.501 220.043 813.404 219.979 813.279 219.907C812.975 219.731 812.645 219.621 812.292 219.577C811.946 219.529 811.603 219.539 811.263 219.607C810.924 219.675 810.622 219.785 810.359 219.937L807.408 221.641L806.348 221.029Z" fill="white" fill-opacity="0.2"/>
<path d="M915.778 275.215C915.233 274.898 914.578 274.652 913.863 274.494C913.147 274.337 912.388 274.272 911.643 274.305C909.331 274.4 907.479 275.453 907.289 276.785C907.031 278.545 909.476 280.075 912.463 280.126C913.417 280.142 914.343 280.002 915.134 279.722C915.925 279.442 916.549 279.033 916.932 278.543C917.122 278.302 916.804 278.017 916.337 278.009C916.103 278.005 915.886 278.074 915.791 278.192C915.448 278.641 914.839 278.998 914.068 279.205C913.297 279.411 912.411 279.453 911.558 279.325C910.146 279.122 908.982 278.444 908.644 277.63C908.503 277.309 908.488 276.977 908.599 276.66C908.71 276.343 908.945 276.048 909.287 275.798C909.629 275.548 910.068 275.349 910.573 275.216C911.078 275.082 911.635 275.018 912.203 275.027C913.252 275.045 914.199 275.312 914.902 275.721L913.976 276.255C913.59 276.477 913.888 276.875 914.45 276.885L916.717 276.923C917.065 276.929 917.34 276.77 917.33 276.57L917.263 275.263C917.247 274.938 916.556 274.763 916.17 274.986L915.778 275.215Z" fill="white" fill-opacity="0.2"/>
<rect x="-2.98023e-08" y="0.5" width="385" height="19" rx="3.5" transform="matrix(0.866025 0.5 -0.866025 0.5 595.788 84.4619)" stroke="white" stroke-opacity="0.2"/>
<path d="M960.127 298.573L956.197 298.573L957.671 299.424L953.249 301.977L954.231 302.544L958.653 299.991L960.127 300.842L960.127 298.573ZM952.266 306.515L946.37 303.111C946.11 302.961 945.963 302.757 945.963 302.544C945.963 302.331 946.11 302.127 946.37 301.977L952.266 298.573C952.527 298.422 952.88 298.338 953.249 298.338C953.617 298.338 953.971 298.422 954.231 298.573L955.705 299.424L954.723 299.991L953.249 299.14L947.353 302.544L953.249 305.948L959.145 302.544L957.671 301.693L958.653 301.126L960.127 301.977C960.388 302.127 960.534 302.331 960.534 302.544C960.534 302.757 960.388 302.961 960.127 303.111L954.231 306.515C953.971 306.666 953.617 306.75 953.249 306.75C952.88 306.75 952.527 306.666 952.266 306.515Z" fill="white" fill-opacity="0.2"/>
<path d="M978.037 314.515L981.906 312.282L980.801 311.643L976.932 313.877L973.062 311.643L971.957 312.282L975.826 314.515L971.957 316.749L973.062 317.387L976.932 315.154L980.801 317.387L981.906 316.749L978.037 314.515Z" fill="white" fill-opacity="0.2"/>
<path fill-rule="evenodd" clip-rule="evenodd" d="M997.525 323.758C998.052 323.453 998.909 323.437 999.482 323.767C1000.05 324.096 1000.42 324.311 1000.42 324.311C1000.42 324.311 1000.96 323.971 1001.41 323.712C1001.86 323.453 1002.7 323.422 1003.27 323.752C1003.85 324.083 1009.17 327.136 1009.67 327.47C1010.16 327.804 1010.25 328.246 1009.71 328.56C1009.16 328.875 1003.76 331.989 1003.26 332.277C1002.76 332.566 1001.86 332.569 1001.3 332.252C1000.74 331.935 1000.37 331.71 1000.37 331.71C1000.37 331.71 999.763 332.086 999.375 332.31C998.987 332.534 997.973 332.599 997.444 332.293C996.915 331.988 991.512 328.908 991 328.612C990.487 328.317 990.465 327.783 991.049 327.472C991.633 327.16 996.998 324.062 997.525 323.758L997.525 323.758ZM1002.25 324.401L996.025 327.988C995.955 328.028 995.955 328.093 996.026 328.133L1002.11 331.609C1002.14 331.628 1002.19 331.639 1002.24 331.639C1002.28 331.639 1002.33 331.628 1002.36 331.608L1008.52 328.049C1008.55 328.029 1008.57 328.003 1008.57 327.975C1008.57 327.948 1008.55 327.921 1008.52 327.902L1002.5 324.401C1002.48 324.392 1002.46 324.384 1002.44 324.379C1002.42 324.373 1002.4 324.371 1002.37 324.37C1002.35 324.37 1002.33 324.373 1002.3 324.378C1002.28 324.383 1002.26 324.391 1002.25 324.401ZM998.246 324.472L992.208 328.025C992.175 328.045 992.157 328.071 992.157 328.098C992.158 328.126 992.177 328.152 992.211 328.171L998.217 331.587C998.251 331.606 998.29 331.621 998.334 331.631C998.378 331.641 998.424 331.647 998.471 331.646C998.518 331.646 998.565 331.64 998.608 331.63C998.651 331.619 998.69 331.604 998.723 331.584L999.42 331.172C999.42 331.172 995.401 328.894 994.883 328.595C994.365 328.296 994.395 327.747 994.947 327.429C995.498 327.11 999.335 324.938 999.335 324.938C999.405 324.898 999.406 324.834 999.335 324.794L998.755 324.468C998.687 324.43 998.595 324.409 998.499 324.41C998.404 324.41 998.313 324.433 998.246 324.472Z" fill="white" fill-opacity="0.2"/>
</g>
<path d="M460.32 2.25C461.994 1.2835 464.709 1.2835 466.383 2.25L1024.1 324.25C1025.78 325.216 1025.78 326.784 1024.1 327.75L565.543 592.5L1.76 267L460.32 2.25Z" stroke="white" stroke-opacity="0.2"/>
<defs>
<clipPath id="clip0_1698_39">
<path d="M459.887 2C461.801 0.89543 464.902 0.895431 466.816 2L1024.54 324C1026.45 325.105 1026.45 326.895 1024.54 328L565.543 593L0.893973 267L459.887 2Z" fill="white"/>
</clipPath>
<clipPath id="clip1_1698_39">
<rect width="652" height="498" transform="matrix(0.866025 0.5 -0.866025 0.5 432.175 18)" fill="white"/>
</clipPath>
<clipPath id="clip2_1698_39">
<rect width="127.66" height="40" fill="white" transform="matrix(0.866025 0.5 -0.866025 0.5 409.658 47)"/>
</clipPath>
<clipPath id="clip3_1698_39">
<path d="M820.726 292.33L848.438 308.33L827.654 320.33L799.941 304.33L820.726 292.33Z" fill="white"/>
</clipPath>
<clipPath id="clip4_1698_39">
<rect width="18" height="18" fill="white" transform="matrix(0.866025 0.5 -0.866025 0.5 860.563 317.33)"/>
</clipPath>
<clipPath id="clip5_1698_39">
<rect width="18" height="18" fill="white" transform="matrix(0.866025 0.5 -0.866025 0.5 883.08 330.33)"/>
</clipPath>
<clipPath id="clip6_1698_39">
<rect width="20" height="20" fill="white" transform="matrix(0.866025 0.5 -0.866025 0.5 905.596 343.33)"/>
</clipPath>
<clipPath id="clip7_1698_39">
<rect width="16" height="16" fill="white" transform="matrix(0.866025 0.5 -0.866025 0.5 543.892 196.5)"/>
</clipPath>
<clipPath id="clip8_1698_39">
<rect width="15" height="12" fill="white" transform="matrix(0.866025 0.5 -0.866025 0.5 492.797 29)"/>
</clipPath>
</defs>
</svg>
