<svg width="152" height="62" viewBox="0 0 152 62" fill="none" xmlns="http://www.w3.org/2000/svg">
<path d="M27.5625 36.3049L33.7944 42.0025L53.4545 12.1707L46.225 5.56104L8.25781 18.6554L14.4767 24.3412L42.7996 13.9141L43.0457 14.1391L27.5625 36.3049Z" fill="white"/>
<path d="M35.0243 25.6751L28.7271 20.0508L9.40918 50.1056L16.7145 56.6303L54.5316 43.0976L48.2474 37.485L20.0442 48.239L19.7954 48.0168L35.0243 25.6751Z" fill="#F8BC13"/>
<path d="M57.5282 57.1234H62.9507V21.6142H57.5282V57.1234ZM60.2854 15.6961C62.3993 15.6961 64.1456 14.0316 64.1456 11.9972C64.1456 9.96282 62.3993 8.29834 60.2854 8.29834C58.1715 8.29834 56.4253 9.96282 56.4253 11.9972C56.4253 14.0316 58.1715 15.6961 60.2854 15.6961Z" fill="#F8BC13"/>
<path d="M93.7121 12.0325H84.142V1.22949H77.2563V12.0325H70.4873V17.9037H77.2563V46.0856C77.2563 53.9529 83.5586 57.7106 89.3939 57.7106C91.9615 57.7106 93.5954 57.2408 94.5291 56.8885L93.1285 50.6651C92.5451 50.7825 91.6114 51.0174 90.0942 51.0174C87.0597 51.0174 84.142 50.0779 84.142 44.2068V17.9037H93.7121V12.0325ZM109.205 12.0325H101.269L115.507 34.578L101.269 57.1234H109.205L119.942 39.6272L130.679 57.1234H138.615L124.143 34.578L138.615 12.0325H130.679L119.942 30.4681L109.205 12.0325Z" fill="white"/>
<path d="M143.644 15.5H144.332V12.6818C144.332 12.0213 144.811 11.5545 145.348 11.5545C145.87 11.5545 146.234 11.898 146.234 12.4118V15.5H146.935V12.5644C146.935 11.9831 147.296 11.5545 147.927 11.5545C148.417 11.5545 148.837 11.8158 148.837 12.4821V15.5H149.526V12.4821C149.526 11.4224 148.96 10.9321 148.16 10.9321C147.518 10.9321 147.049 11.2287 146.819 11.6955H146.771C146.549 11.214 146.158 10.9321 145.57 10.9321C144.985 10.9321 144.554 11.214 144.367 11.6955H144.309V10.9909H143.644V15.5Z" fill="white"/>
<path d="M145.563 24.4703H146.252V19.9612H145.563V24.4703ZM145.598 19.3506H146.205L147.115 17.9885H146.31L145.598 19.3506Z" fill="white"/>
<path d="M145.141 35.777C146.005 35.777 146.296 35.2368 146.448 34.9903H146.529V35.683H147.195V29.6709H146.506V31.8903H146.448C146.296 31.6554 146.028 31.1153 145.152 31.1153C144.02 31.1153 143.239 32.0195 143.239 33.4403C143.239 34.8728 144.02 35.777 145.141 35.777ZM145.234 35.1547C144.371 35.1547 143.927 34.3914 143.927 33.4285C143.927 32.4773 144.359 31.7376 145.234 31.7376C146.074 31.7376 146.518 32.4186 146.518 33.4285C146.518 34.4501 146.063 35.1547 145.234 35.1547Z" fill="white"/>
<path d="M145.564 46.8958H146.252V42.3867H145.564V46.8958ZM145.913 41.6352C146.182 41.6352 146.404 41.4239 146.404 41.1656C146.404 40.9072 146.182 40.6958 145.913 40.6958C145.645 40.6958 145.423 40.9072 145.423 41.1656C145.423 41.4239 145.645 41.6352 145.913 41.6352Z" fill="white"/>
<path d="M144.767 57.0929C145.55 57.0929 145.957 56.6702 146.098 56.3766H146.133V56.9873H146.821V54.0164C146.821 52.5838 145.735 52.4194 145.164 52.4194C144.488 52.4194 143.717 52.6543 143.367 53.4762L144.02 53.7111C144.172 53.3823 144.531 53.03 145.187 53.03C145.821 53.03 146.133 53.3676 146.133 53.946V53.9694C146.133 54.3041 145.794 54.2748 144.978 54.3804C144.146 54.489 143.239 54.674 143.239 55.7073C143.239 56.588 143.916 57.0929 144.767 57.0929ZM144.873 56.4706C144.323 56.4706 143.927 56.224 143.927 55.7425C143.927 55.2141 144.405 55.0498 144.943 54.9793C145.234 54.9441 146.016 54.8618 146.133 54.721V55.355C146.133 55.9187 145.689 56.4706 144.873 56.4706Z" fill="white"/>
</svg>
