<svg width="16" height="198" viewBox="0 0 16 198" fill="none" xmlns="http://www.w3.org/2000/svg">
<path d="M9 1C9 0.447715 8.55228 -2.41411e-08 8 0C7.44772 2.41411e-08 7 0.447715 7 1L9 1ZM7.2929 197.707C7.68343 198.098 8.31659 198.098 8.70712 197.707L15.0711 191.343C15.4616 190.953 15.4616 190.319 15.0711 189.929C14.6806 189.538 14.0474 189.538 13.6569 189.929L8.00001 195.586L2.34315 189.929C1.95263 189.538 1.31946 189.538 0.92894 189.929C0.538416 190.319 0.538416 190.953 0.928941 191.343L7.2929 197.707ZM7 1L7.00001 197L9.00001 197L9 1L7 1Z" fill="#BA1A1A"/>
</svg>
