<svg width="16" height="198" viewBox="0 0 16 198" fill="none" xmlns="http://www.w3.org/2000/svg">
<path d="M7 196.5C7 197.052 7.44772 197.5 8 197.5C8.55228 197.5 9 197.052 9 196.5L7 196.5ZM8.7071 0.792893C8.31657 0.402369 7.68341 0.402369 7.29288 0.792893L0.928924 7.15685C0.5384 7.54738 0.5384 8.18054 0.928924 8.57107C1.31945 8.96159 1.95261 8.96159 2.34314 8.57107L7.99999 2.91421L13.6568 8.57107C14.0474 8.96159 14.6805 8.96159 15.0711 8.57107C15.4616 8.18054 15.4616 7.54738 15.0711 7.15685L8.7071 0.792893ZM9 196.5L8.99999 1.5L6.99999 1.5L7 196.5L9 196.5Z" fill="#B0CFAA"/>
</svg>
