<svg width="24" height="24" viewBox="0 0 24 24" fill="none" xmlns="http://www.w3.org/2000/svg">
<path fill-rule="evenodd" clip-rule="evenodd" d="M16.2798 11.4701C16.4203 11.6107 16.4992 11.8013 16.4992 12.0001C16.4992 12.1988 16.4203 12.3895 16.2798 12.5301L8.77985 20.0301C8.63767 20.1626 8.44963 20.2347 8.25532 20.2313C8.06102 20.2278 7.87564 20.1491 7.73822 20.0117C7.60081 19.8743 7.5221 19.6889 7.51867 19.4946C7.51524 19.3003 7.58737 19.1123 7.71985 18.9701L14.6898 12.0001L7.71985 5.03009C7.58737 4.88792 7.51524 4.69987 7.51867 4.50557C7.5221 4.31127 7.60081 4.12588 7.73822 3.98847C7.87564 3.85106 8.06102 3.77234 8.25532 3.76892C8.44963 3.76549 8.63767 3.83761 8.77985 3.97009L16.2798 11.4701Z" fill="white"/>
</svg>
