<svg width="24" height="24" viewBox="0 0 24 24" fill="none" xmlns="http://www.w3.org/2000/svg">
<path d="M11.4701 3.84011C11.6107 3.69966 11.8013 3.62077 12.0001 3.62077C12.1988 3.62077 12.3895 3.69966 12.5301 3.84011L21.2201 12.5301C21.2887 12.6038 21.3715 12.6629 21.4635 12.7039C21.5555 12.7449 21.6549 12.7669 21.7556 12.7687C21.8563 12.7705 21.9563 12.752 22.0497 12.7142C22.1431 12.6765 22.2279 12.6204 22.2991 12.5492C22.3703 12.4779 22.4265 12.3931 22.4642 12.2997C22.5019 12.2063 22.5204 12.1063 22.5187 12.0056C22.5169 11.9049 22.4949 11.8056 22.4539 11.7136C22.4129 11.6216 22.3538 11.5388 22.2801 11.4701L13.5911 2.78011C13.3821 2.57118 13.1341 2.40544 12.8611 2.29237C12.5881 2.17929 12.2956 2.12109 12.0001 2.12109C11.7046 2.12109 11.412 2.17929 11.139 2.29237C10.8661 2.40544 10.618 2.57118 10.4091 2.78011L1.71908 11.4701C1.58253 11.6116 1.50702 11.8011 1.50882 11.9978C1.51062 12.1944 1.58959 12.3825 1.72871 12.5215C1.86783 12.6605 2.05598 12.7393 2.25263 12.7409C2.44928 12.7425 2.63869 12.6668 2.78008 12.5301L11.4701 3.84011Z" fill="white"/>
<path d="M12 5.43193L20.159 13.5909C20.189 13.6209 20.219 13.6489 20.25 13.6769V19.8749C20.25 20.9099 19.41 21.7499 18.375 21.7499H15C14.8011 21.7499 14.6103 21.6709 14.4697 21.5303C14.329 21.3896 14.25 21.1988 14.25 20.9999V16.4999C14.25 16.301 14.171 16.1103 14.0303 15.9696C13.8897 15.829 13.6989 15.7499 13.5 15.7499H10.5C10.3011 15.7499 10.1103 15.829 9.96967 15.9696C9.82902 16.1103 9.75 16.301 9.75 16.4999V20.9999C9.75 21.1988 9.67098 21.3896 9.53033 21.5303C9.38968 21.6709 9.19891 21.7499 9 21.7499H5.625C5.12772 21.7499 4.65081 21.5524 4.29917 21.2008C3.94754 20.8491 3.75 20.3722 3.75 19.8749V13.6769C3.78111 13.6491 3.81146 13.6204 3.841 13.5909L12 5.42993V5.43193Z" fill="white"/>
</svg>
